<svg xmlns="http://www.w3.org/2000/svg" xmlns:xlink="http://www.w3.org/1999/xlink" width="1359" height="1747" viewBox="0 0 1359 1747">
  <defs>
    <filter id="Path_541" x="654" y="935" width="514" height="326" filterUnits="userSpaceOnUse">
      <feOffset dx="2" dy="2" input="SourceAlpha"/>
      <feGaussianBlur stdDeviation="10" result="blur"/>
      <feFlood flood-color="#1b2032" flood-opacity="0.149"/>
      <feComposite operator="in" in2="blur"/>
      <feComposite in="SourceGraphic"/>
    </filter>
  </defs>
  <g id="Group_607" data-name="Group 607" transform="translate(10486 -3014)">
    <path id="Path_537" data-name="Path 537" d="M196.5,0C305.024,0,393,88.2,393,197S305.024,394,196.5,394,0,305.8,0,197,87.976,0,196.5,0Z" transform="translate(-10486 4367)" fill="#92cb29"/>
    <path id="Path_538" data-name="Path 538" d="M320.5,0C497.507,0,641,143.94,641,321.5S497.507,643,320.5,643,0,499.06,0,321.5,143.493,0,320.5,0Z" transform="translate(-9768 3014)" fill="#1b2032"/>
    <path id="Path_539" data-name="Path 539" d="M20,0H1065a20,20,0,0,1,20,20V1450a20,20,0,0,1-20,20H20a20,20,0,0,1-20-20V20A20,20,0,0,1,20,0Z" transform="translate(-10371 3175)" fill="#f6f6f6"/>
    <path id="Path_549" data-name="Path 549" d="M52.5-24.57c0-14.63-11.06-24.99-24.99-24.99C13.72-49.56,2.45-39.2,2.45-24.57,2.45-9.87,13.72.49,27.51.49,41.37.49,52.5-9.87,52.5-24.57Zm-39.97,0c0-9.94,6.09-16.17,14.98-16.17,8.82,0,14.91,6.23,14.91,16.17S36.33-8.26,27.51-8.26C18.62-8.26,12.53-14.63,12.53-24.57ZM60.83,0h9.94V-30.73h6.79v-8.05H70.77v-1.61c0-4.34,1.61-5.88,6.37-5.74v-8.26c-10.92-.28-16.31,4.13-16.31,13.65v1.96H56.42v8.05h4.41ZM84.98,0h9.94V-30.73h6.79v-8.05H94.92v-1.61c0-4.34,1.61-5.88,6.37-5.74v-8.26c-10.92-.28-16.31,4.13-16.31,13.65v1.96H80.57v8.05h4.41Zm23.1,0h9.8V-38.78h-9.8Zm4.97-43.4a5.789,5.789,0,0,0,6.02-5.74,5.789,5.789,0,0,0-6.02-5.74,5.747,5.747,0,0,0-6.02,5.74A5.747,5.747,0,0,0,113.05-43.4Zm11.97,24.01C125.02-7.21,133,.63,144.2.63c9.66,0,16.17-5.46,18.27-13.72H151.9c-1.19,3.5-3.71,5.32-7.77,5.32-5.46,0-9.1-4.06-9.1-11.62s3.64-11.69,9.1-11.69a7.618,7.618,0,0,1,7.77,5.39h10.57c-2.1-8.68-8.61-13.72-18.27-13.72C133-39.41,125.02-31.57,125.02-19.39Zm61.32-11.97c5.04,0,9.1,3.22,9.24,8.33H177.17C177.94-28.35,181.65-31.36,186.34-31.36Zm18.41,19.18H194.18a7.991,7.991,0,0,1-7.77,4.69c-4.9,0-8.82-3.22-9.31-8.96h28.35a22.907,22.907,0,0,0,.28-3.78c0-11.55-7.91-19.18-19.11-19.18-11.48,0-19.46,7.77-19.46,20.02,0,12.18,8.19,20.02,19.46,20.02C196.21.63,202.65-5.04,204.75-12.18Zm23.8-25.41h9.59c.35-3.22,2.38-6.3,7.14-6.3,4.48,0,6.93,2.38,6.93,6.37,0,5.04-4.2,6.65-9.94,6.65h-2.03v8.05h2.03c7.28,0,10.92,2.1,10.92,7.84,0,4.06-2.52,7.14-7.42,7.14-5.25,0-8.19-3.15-8.4-7.56h-9.52C228.27-4.69,235.9.35,245.98.35c10.71,0,16.59-6.16,16.59-14.49,0-6.93-3.43-11.13-8.61-12.74v-.28a11.834,11.834,0,0,0,7.7-11.55c0-7.56-5.6-13.51-16.1-13.51C235.76-52.22,229.04-47.04,228.55-37.59Zm77.35-.7c-.77-7.21-5.67-13.93-16.1-13.93-12.95,0-18.34,9.24-18.34,25.9,0,15.82,3.78,26.46,18.9,26.46,10.92,0,17.01-7.21,17.01-17.08,0-10.64-6.37-16.66-15.47-16.66-4.97,0-9.59,2.1-11.9,5.95.14-11.76,3.08-16.52,9.45-16.52,4.41,0,6.44,2.1,7.35,5.88ZM289.66-25.55c5.67,0,8.4,3.57,8.4,8.82s-3.15,8.54-8.19,8.54c-5.74,0-8.96-3.43-8.96-8.89C280.91-22.89,285.11-25.55,289.66-25.55ZM317.8-51.17v29.96h9.38a7.63,7.63,0,0,1,7.7-5.39c5.53,0,8.4,3.15,8.4,8.89,0,5.39-2.59,9.45-8.33,9.45-4.76,0-7.63-2.59-8.47-6.16h-9.52C317.8-6.09,324.1,0,335.09,0c11.62,0,17.64-7.42,17.64-17.85,0-7.91-4.06-16.87-15.96-16.87-4.27,0-8.12,1.82-10.01,4.13V-42.56h22.68v-8.61Z" transform="translate(-10310 3286)" fill="#1b2032"/>
    <path id="Path_550" data-name="Path 550" d="M7,0H446a7,7,0,0,1,7,7V261a7,7,0,0,1-7,7H7a7,7,0,0,1-7-7V7A7,7,0,0,1,7,0Z" transform="translate(-10310 3336)" fill="#fff"/>
    <path id="Path_551" data-name="Path 551" d="M7,0H446a7,7,0,0,1,7,7V269a7,7,0,0,1-7,7H7a7,7,0,0,1-7-7V7A7,7,0,0,1,7,0Z" transform="translate(-10310 3653)" fill="#fff"/>
    <path id="Path_552" data-name="Path 552" d="M7,0H447a7,7,0,0,1,7,7V261a7,7,0,0,1-7,7H7a7,7,0,0,1-7-7V7A7,7,0,0,1,7,0Z" transform="translate(-9804 3336)" fill="#fff"/>
    <path id="Path_540" data-name="Path 540" d="M7,0H447a7,7,0,0,1,7,7V269a7,7,0,0,1-7,7H7a7,7,0,0,1-7-7V7A7,7,0,0,1,7,0Z" transform="translate(-9804 4291)" fill="#fff"/>
    <path id="Path_553" data-name="Path 553" d="M7,0H446a7,7,0,0,1,7,7V269a7,7,0,0,1-7,7H7a7,7,0,0,1-7-7V7A7,7,0,0,1,7,0Z" transform="translate(-10310 4291)" fill="#fff"/>
    <path id="Path_542" data-name="Path 542" d="M7,0H447a7,7,0,0,1,7,7V269a7,7,0,0,1-7,7H7a7,7,0,0,1-7-7V7A7,7,0,0,1,7,0Z" transform="translate(-9804 3653)" fill="#fff"/>
    <path id="Path_554" data-name="Path 554" d="M7,0H446a7,7,0,0,1,7,7V259a7,7,0,0,1-7,7H7a7,7,0,0,1-7-7V7A7,7,0,0,1,7,0Z" transform="translate(-10310 3977)" fill="#fff"/>
    <g transform="matrix(1, 0, 0, 1, -10486, 3014)" filter="url(#Path_541)">
      <path id="Path_541-2" data-name="Path 541" d="M7,0H447a7,7,0,0,1,7,7V259a7,7,0,0,1-7,7H7a7,7,0,0,1-7-7V7A7,7,0,0,1,7,0Z" transform="translate(682 963)" fill="#92cb29"/>
    </g>
    <path id="Path_555" data-name="Path 555" d="M12.512,0h2.76L9.545-16.008H6.509L.782,0H3.519l1.15-3.266h6.693ZM10.626-5.405H5.405l2.622-7.429ZM17.756,0h2.622V-17.02H17.756ZM29.164-10.672a3.291,3.291,0,0,1,3.542,3.2H25.691A3.452,3.452,0,0,1,29.164-10.672Zm5.934,6.9H32.269A3.068,3.068,0,0,1,29.279-2a3.486,3.486,0,0,1-3.611-3.358h9.683a8.088,8.088,0,0,0,.092-1.288,5.91,5.91,0,0,0-6.164-6.233c-3.749,0-6.325,2.553-6.325,6.532S25.645.207,29.279.207A5.791,5.791,0,0,0,35.1-3.772Zm5.543-2.9c0-2.691,1.2-3.5,3.128-3.5h.667V-12.88a4.128,4.128,0,0,0-3.795,2.047v-1.84H38.019V0h2.622Zm6.624,3.151C47.265-.943,48.668,0,50.922,0h2.07V-2.185h-1.61c-1.1,0-1.472-.391-1.472-1.334v-7.015h3.082v-2.139H49.91v-3.151H47.265v3.151H45.77v2.139h1.495Zm17.6-.023c-.138-4.577-7.291-3.151-7.291-5.7,0-.851.736-1.426,2.139-1.426a2.1,2.1,0,0,1,2.369,1.863H64.7c-.138-2.53-2.024-4.071-4.9-4.071-2.99,0-4.876,1.633-4.876,3.657,0,4.646,7.36,3.22,7.36,5.7,0,.874-.805,1.518-2.323,1.518a2.312,2.312,0,0,1-2.53-1.886H54.717c.115,2.3,2.254,4.094,5.29,4.094C63,.207,64.86-1.4,64.86-3.542Z" transform="translate(-10190 3408)" fill="#1b2032"/>
    <path id="Path_556" data-name="Path 556" d="M1.725,0H4.347V-15.985H1.725ZM16.79,0h2.6V-7.475c0-3.542-2.231-5.405-5.2-5.405a4.875,4.875,0,0,0-3.772,1.656v-1.449H7.8V0h2.622V-7.084c0-2.323,1.265-3.519,3.2-3.519,1.909,0,3.174,1.2,3.174,3.519Zm5.06-6.394c0,3.91,2.645,6.6,5.934,6.6a5.455,5.455,0,0,0,4.439-2.093V0h2.645V-12.673H32.223v1.84A5.394,5.394,0,0,0,27.83-12.88C24.5-12.88,21.85-10.3,21.85-6.394Zm10.373.046A3.937,3.937,0,0,1,28.382-2.07a3.993,3.993,0,0,1-3.841-4.324A3.888,3.888,0,0,1,28.382-10.6,3.93,3.93,0,0,1,32.223-6.348Zm5.221,0c0,3.979,2.576,6.555,6.21,6.555A5.692,5.692,0,0,0,49.5-4H46.667a2.894,2.894,0,0,1-3.013,2c-2.116,0-3.519-1.564-3.519-4.347,0-2.76,1.4-4.324,3.519-4.324a2.962,2.962,0,0,1,3.013,2H49.5c-.713-2.668-2.737-4.209-5.842-4.209C40.02-12.88,37.444-10.3,37.444-6.348ZM52.532-3.519C52.532-.943,53.935,0,56.189,0h2.07V-2.185h-1.61c-1.1,0-1.472-.391-1.472-1.334v-7.015h3.082v-2.139H55.177v-3.151H52.532v3.151H51.037v2.139h1.495ZM60.674,0H63.3V-12.673H60.674Zm1.334-14.352a1.654,1.654,0,0,0,1.656-1.679,1.654,1.654,0,0,0-1.656-1.679,1.659,1.659,0,0,0-1.679,1.679A1.659,1.659,0,0,0,62.008-14.352Zm3.243,1.679L70.058,0h3.128l4.83-12.673H75.233L71.645-2.346,68.057-12.673Zm20.079,2a3.291,3.291,0,0,1,3.542,3.2H81.857A3.452,3.452,0,0,1,85.33-10.672Zm5.934,6.9H88.435A3.068,3.068,0,0,1,85.445-2a3.486,3.486,0,0,1-3.611-3.358h9.683a8.088,8.088,0,0,0,.092-1.288,5.91,5.91,0,0,0-6.164-6.233c-3.749,0-6.325,2.553-6.325,6.532S81.811.207,85.445.207A5.791,5.791,0,0,0,91.264-3.772Zm8.9-12.213V0h8.027V-2.116h-5.4V-15.985ZM110.377,0H113V-12.673h-2.622Zm1.334-14.352a1.654,1.654,0,0,0,1.656-1.679,1.654,1.654,0,0,0-1.656-1.679,1.659,1.659,0,0,0-1.679,1.679A1.659,1.659,0,0,0,111.711-14.352Zm3.864,8c0,3.979,2.576,6.555,6.21,6.555A5.692,5.692,0,0,0,127.627-4H124.8a2.894,2.894,0,0,1-3.013,2c-2.116,0-3.519-1.564-3.519-4.347,0-2.76,1.4-4.324,3.519-4.324a2.962,2.962,0,0,1,3.013,2h2.829c-.713-2.668-2.737-4.209-5.842-4.209C118.151-12.88,115.575-10.3,115.575-6.348Zm20.01-4.324a3.291,3.291,0,0,1,3.542,3.2h-7.015A3.452,3.452,0,0,1,135.585-10.672Zm5.934,6.9H138.69A3.068,3.068,0,0,1,135.7-2a3.486,3.486,0,0,1-3.611-3.358h9.683a8.088,8.088,0,0,0,.092-1.288A5.91,5.91,0,0,0,135.7-12.88c-3.749,0-6.325,2.553-6.325,6.532S132.066.207,135.7.207A5.791,5.791,0,0,0,141.519-3.772ZM153.433,0h2.6V-7.475c0-3.542-2.231-5.405-5.2-5.405a4.875,4.875,0,0,0-3.772,1.656v-1.449H144.44V0h2.622V-7.084c0-2.323,1.265-3.519,3.2-3.519,1.909,0,3.174,1.2,3.174,3.519ZM168.82-3.542c-.138-4.577-7.291-3.151-7.291-5.7,0-.851.736-1.426,2.139-1.426a2.1,2.1,0,0,1,2.369,1.863h2.622c-.138-2.53-2.024-4.071-4.9-4.071-2.99,0-4.876,1.633-4.876,3.657,0,4.646,7.36,3.22,7.36,5.7,0,.874-.805,1.518-2.323,1.518a2.312,2.312,0,0,1-2.53-1.886h-2.714c.115,2.3,2.254,4.094,5.29,4.094C166.957.207,168.82-1.4,168.82-3.542Zm8.165-7.13a3.291,3.291,0,0,1,3.542,3.2h-7.015A3.452,3.452,0,0,1,176.985-10.672Zm5.934,6.9H180.09A3.068,3.068,0,0,1,177.1-2a3.486,3.486,0,0,1-3.611-3.358h9.683a8.088,8.088,0,0,0,.092-1.288A5.91,5.91,0,0,0,177.1-12.88c-3.749,0-6.325,2.553-6.325,6.532S173.466.207,177.1.207A5.791,5.791,0,0,0,182.919-3.772Zm2.047-2.622c0,3.91,2.645,6.6,5.98,6.6a5.254,5.254,0,0,0,4.393-2.116V0h2.645V-17.02h-2.645V-10.9a5.837,5.837,0,0,0-4.37-1.978C187.611-12.88,184.966-10.3,184.966-6.394Zm10.373.046A3.937,3.937,0,0,1,191.5-2.07a3.993,3.993,0,0,1-3.841-4.324A3.888,3.888,0,0,1,191.5-10.6,3.93,3.93,0,0,1,195.339-6.348ZM1.7,25.158c0,4.071,2.852,6,6.21,6,3.335,0,6.279-1.932,6.279-6V15.015H11.569V25.2c0,2.484-1.4,3.657-3.634,3.657-2.208,0-3.611-1.173-3.611-3.657V15.015H1.7Zm25.346,2.3c-.138-4.577-7.291-3.151-7.291-5.7,0-.851.736-1.426,2.139-1.426a2.1,2.1,0,0,1,2.369,1.863h2.622c-.138-2.53-2.024-4.071-4.9-4.071-2.99,0-4.876,1.633-4.876,3.657,0,4.646,7.36,3.22,7.36,5.7,0,.874-.805,1.518-2.323,1.518a2.312,2.312,0,0,1-2.53-1.886H16.905c.115,2.3,2.254,4.094,5.29,4.094C25.185,31.207,27.048,29.6,27.048,27.458Zm8.165-7.13a3.291,3.291,0,0,1,3.542,3.2H31.74A3.452,3.452,0,0,1,35.213,20.328Zm5.934,6.9H38.318A3.068,3.068,0,0,1,35.328,29a3.486,3.486,0,0,1-3.611-3.358H41.4a8.088,8.088,0,0,0,.092-1.288,5.91,5.91,0,0,0-6.164-6.233C31.579,18.12,29,20.673,29,24.652s2.691,6.555,6.325,6.555A5.791,5.791,0,0,0,41.147,27.228Zm5.543-2.9c0-2.691,1.2-3.5,3.128-3.5h.667V18.12a4.128,4.128,0,0,0-3.8,2.047v-1.84H44.068V31H46.69Zm15.663,3.128c-.138-4.577-7.291-3.151-7.291-5.7,0-.851.736-1.426,2.139-1.426a2.1,2.1,0,0,1,2.369,1.863h2.622c-.138-2.53-2.024-4.071-4.9-4.071-2.99,0-4.876,1.633-4.876,3.657,0,4.646,7.36,3.22,7.36,5.7,0,.874-.805,1.518-2.323,1.518a2.312,2.312,0,0,1-2.53-1.886H52.21c.115,2.3,2.254,4.094,5.29,4.094C60.49,31.207,62.353,29.6,62.353,27.458Z" transform="translate(-10185 3713)" fill="#1b2032"/>
    <path id="Path_557" data-name="Path 557" d="M1.65-15.29V0H9.328V-2.024H4.158V-15.29ZM11.418,0h2.508V-12.122H11.418Zm1.276-13.728a1.582,1.582,0,0,0,1.584-1.606,1.582,1.582,0,0,0-1.584-1.606,1.587,1.587,0,0,0-1.606,1.606A1.587,1.587,0,0,0,12.694-13.728Zm3.7,7.656C16.39-2.266,18.854.2,22.33.2a5.445,5.445,0,0,0,5.588-4.026H25.212A2.768,2.768,0,0,1,22.33-1.914c-2.024,0-3.366-1.5-3.366-4.158,0-2.64,1.342-4.136,3.366-4.136a2.833,2.833,0,0,1,2.882,1.914h2.706c-.682-2.552-2.618-4.026-5.588-4.026C18.854-12.32,16.39-9.856,16.39-6.072Zm19.14-4.136A3.148,3.148,0,0,1,38.918-7.15h-6.71A3.3,3.3,0,0,1,35.53-10.208Zm5.676,6.6H38.5a2.935,2.935,0,0,1-2.86,1.694,3.334,3.334,0,0,1-3.454-3.212h9.262a7.737,7.737,0,0,0,.088-1.232,5.653,5.653,0,0,0-5.9-5.962c-3.586,0-6.05,2.442-6.05,6.248A5.881,5.881,0,0,0,35.64.2,5.539,5.539,0,0,0,41.206-3.608ZM52.6,0h2.486V-7.15c0-3.388-2.134-5.17-4.972-5.17a4.663,4.663,0,0,0-3.608,1.584v-1.386H44V0h2.508V-6.776c0-2.222,1.21-3.366,3.058-3.366C51.392-10.142,52.6-9,52.6-6.776ZM67.32-3.388c-.132-4.378-6.974-3.014-6.974-5.456,0-.814.7-1.364,2.046-1.364a2,2,0,0,1,2.266,1.782h2.508c-.132-2.42-1.936-3.894-4.686-3.894-2.86,0-4.664,1.562-4.664,3.5,0,4.444,7.04,3.08,7.04,5.456,0,.836-.77,1.452-2.222,1.452a2.212,2.212,0,0,1-2.42-1.8h-2.6C57.728-1.518,59.774.2,62.678.2,65.538.2,67.32-1.342,67.32-3.388Zm7.81-6.82A3.148,3.148,0,0,1,78.518-7.15h-6.71A3.3,3.3,0,0,1,75.13-10.208Zm5.676,6.6H78.1a2.935,2.935,0,0,1-2.86,1.694,3.334,3.334,0,0,1-3.454-3.212h9.262a7.737,7.737,0,0,0,.088-1.232,5.653,5.653,0,0,0-5.9-5.962c-3.586,0-6.05,2.442-6.05,6.248A5.881,5.881,0,0,0,75.24.2,5.539,5.539,0,0,0,80.806-3.608Zm11.836.22C92.51-7.766,85.668-6.4,85.668-8.844c0-.814.7-1.364,2.046-1.364A2,2,0,0,1,89.98-8.426h2.508c-.132-2.42-1.936-3.894-4.686-3.894-2.86,0-4.664,1.562-4.664,3.5,0,4.444,7.04,3.08,7.04,5.456,0,.836-.77,1.452-2.222,1.452a2.212,2.212,0,0,1-2.42-1.8h-2.6C83.05-1.518,85.1.2,88,.2,90.86.2,92.642-1.342,92.642-3.388Zm16.874-11.924h-8.448V0h8.448V-2.046h-5.94V-6.732h5.28V-8.778h-5.28v-4.488h5.94ZM118.866,0H121.7l-3.916-6.138,3.916-5.984h-2.618l-2.464,4.114L114-12.122h-2.838l3.916,6.16L111.166,0h2.618l2.464-4.114Zm7.216-10.34v-1.782h-2.508V5.764h2.508V-1.76A5.48,5.48,0,0,0,130.306.2c3.19,0,5.7-2.574,5.7-6.314s-2.508-6.2-5.7-6.2A5.289,5.289,0,0,0,126.082-10.34Zm7.37,4.224a3.822,3.822,0,0,1-3.7,4.136,3.779,3.779,0,0,1-3.674-4.092,3.772,3.772,0,0,1,3.674-4.07A3.723,3.723,0,0,1,133.452-6.116ZM138.49,0H141V-12.122H138.49Zm1.276-13.728a1.582,1.582,0,0,0,1.584-1.606,1.582,1.582,0,0,0-1.584-1.606,1.587,1.587,0,0,0-1.606,1.606A1.587,1.587,0,0,0,139.766-13.728Zm7.04,7.348c0-2.574,1.144-3.344,2.992-3.344h.638v-2.6a3.949,3.949,0,0,0-3.63,1.958v-1.76H144.3V0h2.508ZM152.746,0h2.508V-12.122h-2.508Zm1.276-13.728a1.582,1.582,0,0,0,1.584-1.606,1.582,1.582,0,0,0-1.584-1.606,1.587,1.587,0,0,0-1.606,1.606A1.587,1.587,0,0,0,154.022-13.728ZM167.156,0h2.486V-7.15c0-3.388-2.134-5.17-4.972-5.17a4.663,4.663,0,0,0-3.608,1.584v-1.386h-2.508V0h2.508V-6.776c0-2.222,1.21-3.366,3.058-3.366,1.826,0,3.036,1.144,3.036,3.366ZM172-6.116c0,3.74,2.53,6.314,5.72,6.314a5.2,5.2,0,0,0,4.2-2.024V.2c0,2.42-1.452,3.608-3.388,3.608a3.379,3.379,0,0,1-3.454-2.112H172.59c.308,2.684,2.706,4.29,5.94,4.29,3.784,0,5.918-2.486,5.918-5.786v-12.32h-2.53v1.76a5.135,5.135,0,0,0-4.2-1.958C174.526-12.32,172-9.856,172-6.116Zm9.922.044a3.766,3.766,0,0,1-3.674,4.092,3.819,3.819,0,0,1-3.674-4.136,3.719,3.719,0,0,1,3.674-4.026A3.759,3.759,0,0,1,181.918-6.072Z" transform="translate(-9681 3407)" fill="#1b2032"/>
    <path id="Path_543" data-name="Path 543" d="M12.512,0h2.76L9.545-16.008H6.509L.782,0H3.519l1.15-3.266h6.693ZM10.626-5.405H5.405l2.622-7.429Zm5.635-7.268L21.068,0H24.2l4.83-12.673H26.243L22.655-2.346,19.067-12.673ZM30.13-6.394c0,3.91,2.645,6.6,5.98,6.6A5.44,5.44,0,0,0,40.5-1.909V.207c0,2.53-1.518,3.772-3.542,3.772A3.533,3.533,0,0,1,33.35,1.771h-2.6c.322,2.806,2.829,4.485,6.21,4.485,3.956,0,6.187-2.6,6.187-6.049v-12.88H40.5v1.84A5.368,5.368,0,0,0,36.11-12.88C32.775-12.88,30.13-10.3,30.13-6.394ZM40.5-6.348A3.937,3.937,0,0,1,36.662-2.07a3.993,3.993,0,0,1-3.841-4.324A3.888,3.888,0,0,1,36.662-10.6,3.93,3.93,0,0,1,40.5-6.348Zm8.809,4.83A1.654,1.654,0,0,0,47.656-3.2a1.659,1.659,0,0,0-1.679,1.679A1.659,1.659,0,0,0,47.656.161,1.654,1.654,0,0,0,49.312-1.518Zm7.935-6.509A7.982,7.982,0,0,0,65.412.138a7.6,7.6,0,0,0,7.429-4.784H69.69a4.466,4.466,0,0,1-4.278,2.507c-3.174,0-5.474-2.277-5.474-5.888s2.3-5.865,5.474-5.865a4.466,4.466,0,0,1,4.278,2.507h3.151a7.62,7.62,0,0,0-7.429-4.807A8,8,0,0,0,57.247-8.027ZM87.975-6.348a6.25,6.25,0,0,0-6.463-6.532,6.25,6.25,0,0,0-6.463,6.532A6.179,6.179,0,0,0,81.4.207,6.348,6.348,0,0,0,87.975-6.348Zm-10.258,0c0-2.875,1.771-4.255,3.749-4.255,1.955,0,3.818,1.38,3.818,4.255S83.352-2.07,81.4-2.07C79.419-2.07,77.717-3.473,77.717-6.348Zm22.31,2.806c-.138-4.577-7.291-3.151-7.291-5.7,0-.851.736-1.426,2.139-1.426a2.1,2.1,0,0,1,2.369,1.863h2.622c-.138-2.53-2.024-4.071-4.9-4.071-2.99,0-4.876,1.633-4.876,3.657,0,4.646,7.36,3.22,7.36,5.7,0,.874-.805,1.518-2.323,1.518A2.312,2.312,0,0,1,92.6-3.887H89.884C90-1.587,92.138.207,95.174.207,98.164.207,100.027-1.4,100.027-3.542Zm3.243.023c0,2.576,1.4,3.519,3.657,3.519H109V-2.185h-1.61c-1.1,0-1.472-.391-1.472-1.334v-7.015H109v-2.139h-3.082v-3.151H103.27v3.151h-1.5v2.139h1.5Zm16.744-5.106v-5.221h2.9c2.047,0,2.967.966,2.967,2.622,0,1.61-.92,2.6-2.967,2.6Zm8.556-2.6c0-2.6-1.863-4.761-5.658-4.761h-5.52V0h2.622V-6.486h2.9C127.075-6.486,128.57-8.947,128.57-11.224Zm7.843.552a3.291,3.291,0,0,1,3.542,3.2H132.94A3.452,3.452,0,0,1,136.413-10.672Zm5.934,6.9h-2.829A3.068,3.068,0,0,1,136.528-2a3.486,3.486,0,0,1-3.611-3.358H142.6a8.088,8.088,0,0,0,.092-1.288,5.91,5.91,0,0,0-6.164-6.233c-3.749,0-6.325,2.553-6.325,6.532S132.894.207,136.528.207A5.791,5.791,0,0,0,142.347-3.772Zm5.543-2.9c0-2.691,1.2-3.5,3.128-3.5h.667V-12.88a4.128,4.128,0,0,0-3.795,2.047v-1.84h-2.622V0h2.622Zm12.167.828c0,4.071,2.852,6,6.21,6,3.335,0,6.279-1.932,6.279-6V-15.985h-2.622V-5.8c0,2.484-1.4,3.657-3.634,3.657-2.208,0-3.611-1.173-3.611-3.657V-15.985h-2.622Zm25.346,2.3c-.138-4.577-7.291-3.151-7.291-5.7,0-.851.736-1.426,2.139-1.426a2.1,2.1,0,0,1,2.369,1.863h2.622c-.138-2.53-2.024-4.071-4.9-4.071-2.99,0-4.876,1.633-4.876,3.657,0,4.646,7.36,3.22,7.36,5.7,0,.874-.805,1.518-2.323,1.518a2.312,2.312,0,0,1-2.53-1.886H175.26c.115,2.3,2.254,4.094,5.29,4.094C183.54.207,185.4-1.4,185.4-3.542Zm8.165-7.13a3.291,3.291,0,0,1,3.542,3.2H190.1A3.452,3.452,0,0,1,193.568-10.672Zm5.934,6.9h-2.829A3.068,3.068,0,0,1,193.683-2a3.486,3.486,0,0,1-3.611-3.358h9.683a8.088,8.088,0,0,0,.092-1.288,5.91,5.91,0,0,0-6.164-6.233c-3.749,0-6.325,2.553-6.325,6.532S190.049.207,193.683.207A5.791,5.791,0,0,0,199.5-3.772Zm5.543-2.9c0-2.691,1.2-3.5,3.128-3.5h.667V-12.88a4.128,4.128,0,0,0-3.795,2.047v-1.84h-2.622V0h2.622Z" transform="translate(-9676 4371)" fill="#1b2032"/>
    <path id="Path_558" data-name="Path 558" d="M12.512,0h2.76L9.545-16.008H6.509L.782,0H3.519l1.15-3.266h6.693ZM10.626-5.405H5.405l2.622-7.429Zm6.256-.943c0,3.979,2.576,6.555,6.21,6.555A5.692,5.692,0,0,0,28.934-4H26.1a2.894,2.894,0,0,1-3.013,2c-2.116,0-3.519-1.564-3.519-4.347,0-2.76,1.4-4.324,3.519-4.324a2.962,2.962,0,0,1,3.013,2h2.829c-.713-2.668-2.737-4.209-5.842-4.209C19.458-12.88,16.882-10.3,16.882-6.348ZM31.97-3.519C31.97-.943,33.373,0,35.627,0H37.7V-2.185h-1.61c-1.1,0-1.472-.391-1.472-1.334v-7.015H37.7v-2.139H34.615v-3.151H31.97v3.151h-1.5v2.139h1.5ZM40.112,0h2.622V-12.673H40.112Zm1.334-14.352A1.654,1.654,0,0,0,43.1-16.031a1.654,1.654,0,0,0-1.656-1.679,1.659,1.659,0,0,0-1.679,1.679A1.659,1.659,0,0,0,41.446-14.352Zm3.243,1.679L49.5,0h3.128l4.83-12.673H54.671L51.083-2.346,47.495-12.673Zm20.079,2a3.291,3.291,0,0,1,3.542,3.2H61.3A3.452,3.452,0,0,1,64.768-10.672Zm5.934,6.9H67.873A3.068,3.068,0,0,1,64.883-2a3.486,3.486,0,0,1-3.611-3.358h9.683a8.088,8.088,0,0,0,.092-1.288,5.91,5.91,0,0,0-6.164-6.233c-3.749,0-6.325,2.553-6.325,6.532S61.249.207,64.883.207A5.791,5.791,0,0,0,70.7-3.772ZM95.059-8.027a7.969,7.969,0,0,0-8.165-8.165,8,8,0,0,0-8.165,8.165A8,8,0,0,0,86.894.161,7.974,7.974,0,0,0,95.059-8.027Zm-13.639,0c0-3.611,2.3-5.865,5.474-5.865s5.474,2.254,5.474,5.865-2.3,5.911-5.474,5.911S81.42-4.416,81.42-8.027Zm15.824-4.6H99.8a2.605,2.605,0,0,1,2.852-2.277c1.794,0,2.737.966,2.737,2.415,0,1.794-1.449,2.484-3.818,2.507h-.621V-7.82h.6c2.737,0,4.163.759,4.163,2.967a2.63,2.63,0,0,1-2.921,2.76,2.961,2.961,0,0,1-3.243-2.76h-2.53c.161,3.289,2.622,4.945,5.8,4.945,3.5,0,5.382-2.024,5.382-4.692a4.084,4.084,0,0,0-2.875-4.3v-.092a3.916,3.916,0,0,0,2.576-3.8c0-2.438-1.817-4.37-5.152-4.37C99.682-17.158,97.428-15.525,97.244-12.627Zm25.139-.253a4.813,4.813,0,0,0-5.175-4.3c-4.186,0-5.934,3.174-5.934,8.418,0,5.336,1.265,8.763,6.141,8.763,3.588,0,5.5-2.415,5.5-5.589,0-3.5-2.139-5.52-5.152-5.52a4.839,4.839,0,0,0-4.232,2.116c.069-4.393,1.288-6,3.657-6a2.508,2.508,0,0,1,2.783,2.116Zm-5.2,3.979c2.208,0,3.22,1.426,3.22,3.427a3,3,0,0,1-3.128,3.289,3.179,3.179,0,0,1-3.45-3.45A3.131,3.131,0,0,1,117.185-8.9Zm9.223-7.912V-7.13h2.484A3.025,3.025,0,0,1,131.9-9.223c2.185,0,3.266,1.242,3.266,3.427,0,2.07-1.012,3.611-3.266,3.611a3.127,3.127,0,0,1-3.312-2.346H126.04C126.431-1.909,128.432,0,131.882,0c3.887,0,5.8-2.53,5.8-5.865,0-2.53-1.265-5.589-5.382-5.589a4.493,4.493,0,0,0-3.473,1.518v-4.577h7.705v-2.3ZM146.717-5.842c0,4.071,2.852,6,6.21,6,3.335,0,6.279-1.932,6.279-6V-15.985h-2.622V-5.8c0,2.484-1.4,3.657-3.634,3.657-2.208,0-3.611-1.173-3.611-3.657V-15.985h-2.622Zm25.346,2.3c-.138-4.577-7.291-3.151-7.291-5.7,0-.851.736-1.426,2.139-1.426a2.1,2.1,0,0,1,2.369,1.863H171.9c-.138-2.53-2.024-4.071-4.9-4.071-2.99,0-4.876,1.633-4.876,3.657,0,4.646,7.36,3.22,7.36,5.7,0,.874-.805,1.518-2.323,1.518a2.312,2.312,0,0,1-2.53-1.886H161.92c.115,2.3,2.254,4.094,5.29,4.094C170.2.207,172.063-1.4,172.063-3.542Zm8.165-7.13a3.291,3.291,0,0,1,3.542,3.2h-7.015A3.452,3.452,0,0,1,180.228-10.672Zm5.934,6.9h-2.829A3.068,3.068,0,0,1,180.343-2a3.486,3.486,0,0,1-3.611-3.358h9.683a8.088,8.088,0,0,0,.092-1.288,5.91,5.91,0,0,0-6.164-6.233c-3.749,0-6.325,2.553-6.325,6.532S176.709.207,180.343.207A5.791,5.791,0,0,0,186.162-3.772Zm5.543-2.9c0-2.691,1.2-3.5,3.128-3.5h.667V-12.88a4.128,4.128,0,0,0-3.795,2.047v-1.84h-2.622V0h2.622Zm15.663,3.128c-.138-4.577-7.291-3.151-7.291-5.7,0-.851.736-1.426,2.139-1.426a2.1,2.1,0,0,1,2.369,1.863h2.622c-.138-2.53-2.024-4.071-4.9-4.071-2.99,0-4.876,1.633-4.876,3.657,0,4.646,7.36,3.22,7.36,5.7,0,.874-.805,1.518-2.323,1.518a2.312,2.312,0,0,1-2.53-1.886h-2.714c.115,2.3,2.254,4.094,5.29,4.094C205.505.207,207.368-1.4,207.368-3.542Z" transform="translate(-10182 4371)" fill="#1b2032"/>
    <path id="Path_544" data-name="Path 544" d="M.9-13.846H5.175V0H7.8V-13.846h4.255v-2.139H.9Zm25.875,7.5a6.25,6.25,0,0,0-6.463-6.532,6.25,6.25,0,0,0-6.463,6.532A6.179,6.179,0,0,0,20.194.207,6.348,6.348,0,0,0,26.772-6.348Zm-10.258,0c0-2.875,1.771-4.255,3.749-4.255,1.955,0,3.818,1.38,3.818,4.255S22.149-2.07,20.194-2.07C18.216-2.07,16.514-3.473,16.514-6.348ZM29.785-3.519C29.785-.943,31.188,0,33.442,0h2.07V-2.185H33.9c-1.1,0-1.472-.391-1.472-1.334v-7.015h3.082v-2.139H32.43v-3.151H29.785v3.151h-1.5v2.139h1.5Zm7.268-2.875c0,3.91,2.645,6.6,5.934,6.6a5.455,5.455,0,0,0,4.439-2.093V0h2.645V-12.673H47.426v1.84a5.394,5.394,0,0,0-4.393-2.047C39.7-12.88,37.053-10.3,37.053-6.394Zm10.373.046A3.937,3.937,0,0,1,43.585-2.07a3.993,3.993,0,0,1-3.841-4.324A3.888,3.888,0,0,1,43.585-10.6,3.93,3.93,0,0,1,47.426-6.348ZM53.521,0h2.622V-17.02H53.521ZM74.4-16.008H65.573V0H74.4V-2.139h-6.21v-4.9h5.52V-9.177h-5.52v-4.692H74.4ZM86.618,0h2.6V-7.475c0-3.542-2.231-5.405-5.2-5.405a4.875,4.875,0,0,0-3.772,1.656v-1.449H77.625V0h2.622V-7.084c0-2.323,1.265-3.519,3.2-3.519,1.909,0,3.174,1.2,3.174,3.519Zm5.06-6.394c0,3.91,2.645,6.6,5.934,6.6a5.455,5.455,0,0,0,4.439-2.093V0H104.7V-12.673h-2.645v1.84a5.394,5.394,0,0,0-4.393-2.047C94.323-12.88,91.678-10.3,91.678-6.394Zm10.373.046A3.937,3.937,0,0,1,98.21-2.07a3.993,3.993,0,0,1-3.841-4.324A3.888,3.888,0,0,1,98.21-10.6,3.93,3.93,0,0,1,102.051-6.348Zm8.717-4.439V-17.02h-2.622V0h2.622V-1.84A5.386,5.386,0,0,0,115.184.207c3.335,0,5.957-2.691,5.957-6.6s-2.6-6.486-5.957-6.486A5.418,5.418,0,0,0,110.768-10.787Zm7.705,4.393a4,4,0,0,1-3.864,4.324,3.951,3.951,0,0,1-3.841-4.278,3.943,3.943,0,0,1,3.841-4.255A3.892,3.892,0,0,1,118.473-6.394ZM123.74,0h2.622V-17.02H123.74Zm11.408-10.672a3.291,3.291,0,0,1,3.542,3.2h-7.015A3.452,3.452,0,0,1,135.148-10.672Zm5.934,6.9h-2.829A3.068,3.068,0,0,1,135.263-2a3.486,3.486,0,0,1-3.611-3.358h9.683a8.088,8.088,0,0,0,.092-1.288,5.91,5.91,0,0,0-6.164-6.233c-3.749,0-6.325,2.553-6.325,6.532S131.629.207,135.263.207A5.791,5.791,0,0,0,141.082-3.772Zm2.047-2.622c0,3.91,2.645,6.6,5.98,6.6A5.254,5.254,0,0,0,153.5-1.909V0h2.645V-17.02H153.5V-10.9a5.837,5.837,0,0,0-4.37-1.978C145.774-12.88,143.129-10.3,143.129-6.394Zm10.373.046a3.937,3.937,0,0,1-3.841,4.278,3.993,3.993,0,0,1-3.841-4.324,3.888,3.888,0,0,1,3.841-4.209A3.93,3.93,0,0,1,153.5-6.348ZM12.512,31h2.76L9.545,14.992H6.509L.782,31H3.519l1.15-3.266h6.693Zm-1.886-5.405H5.405l2.622-7.429Zm12.351-10.58H17.756V31h5.221c5.129,0,8.487-3.013,8.487-7.935C31.464,18.12,28.106,15.015,22.977,15.015Zm-2.6,13.846V17.154h2.6c3.772,0,5.8,2.254,5.8,5.911,0,3.634-2.024,5.8-5.8,5.8Zm19.642-3.7c0,4.071,2.852,6,6.21,6,3.335,0,6.279-1.932,6.279-6V15.015H49.887V25.2c0,2.484-1.4,3.657-3.634,3.657-2.208,0-3.611-1.173-3.611-3.657V15.015H40.02Zm25.346,2.3c-.138-4.577-7.291-3.151-7.291-5.7,0-.851.736-1.426,2.139-1.426a2.1,2.1,0,0,1,2.369,1.863h2.622c-.138-2.53-2.024-4.071-4.9-4.071-2.99,0-4.876,1.633-4.876,3.657,0,4.646,7.36,3.22,7.36,5.7,0,.874-.805,1.518-2.323,1.518a2.312,2.312,0,0,1-2.53-1.886H55.223c.115,2.3,2.254,4.094,5.29,4.094C63.5,31.207,65.366,29.6,65.366,27.458Zm8.165-7.13a3.291,3.291,0,0,1,3.542,3.2H70.058A3.452,3.452,0,0,1,73.531,20.328Zm5.934,6.9H76.636A3.068,3.068,0,0,1,73.646,29a3.486,3.486,0,0,1-3.611-3.358h9.683a8.088,8.088,0,0,0,.092-1.288,5.91,5.91,0,0,0-6.164-6.233c-3.749,0-6.325,2.553-6.325,6.532s2.691,6.555,6.325,6.555A5.791,5.791,0,0,0,79.465,27.228Zm5.543-2.9c0-2.691,1.2-3.5,3.128-3.5H88.8V18.12a4.128,4.128,0,0,0-3.795,2.047v-1.84H82.386V31h2.622Zm15.663,3.128c-.138-4.577-7.291-3.151-7.291-5.7,0-.851.736-1.426,2.139-1.426a2.1,2.1,0,0,1,2.369,1.863h2.622c-.138-2.53-2.024-4.071-4.9-4.071-2.99,0-4.876,1.633-4.876,3.657,0,4.646,7.36,3.22,7.36,5.7,0,.874-.805,1.518-2.323,1.518a2.312,2.312,0,0,1-2.53-1.886H90.528c.115,2.3,2.254,4.094,5.29,4.094C98.808,31.207,100.671,29.6,100.671,27.458Z" transform="translate(-9681 3713)" fill="#1b2032"/>
    <path id="Path_559" data-name="Path 559" d="M10.212-11.2c0,1.587-.92,2.714-2.967,2.714h-2.9v-5.359h2.9C9.292-13.846,10.212-12.811,10.212-11.2ZM1.725-15.985V0H4.347V-6.394h2L10.028,0h3.128L9.2-6.624A4.55,4.55,0,0,0,12.9-11.2c0-2.6-1.863-4.784-5.658-4.784ZM21.6-10.672a3.291,3.291,0,0,1,3.542,3.2H18.124A3.452,3.452,0,0,1,21.6-10.672Zm5.934,6.9H24.7A3.068,3.068,0,0,1,21.712-2,3.486,3.486,0,0,1,18.1-5.359h9.683a8.088,8.088,0,0,0,.092-1.288,5.91,5.91,0,0,0-6.164-6.233c-3.749,0-6.325,2.553-6.325,6.532S18.078.207,21.712.207A5.791,5.791,0,0,0,27.531-3.772Zm2.047-2.576c0,3.979,2.576,6.555,6.21,6.555A5.692,5.692,0,0,0,41.63-4H38.8a2.894,2.894,0,0,1-3.013,2c-2.116,0-3.519-1.564-3.519-4.347,0-2.76,1.4-4.324,3.519-4.324a2.962,2.962,0,0,1,3.013,2H41.63c-.713-2.668-2.737-4.209-5.842-4.209C32.154-12.88,29.578-10.3,29.578-6.348Zm26.749,0a6.25,6.25,0,0,0-6.463-6.532A6.25,6.25,0,0,0,43.4-6.348,6.179,6.179,0,0,0,49.749.207,6.348,6.348,0,0,0,56.327-6.348Zm-10.258,0c0-2.875,1.771-4.255,3.749-4.255,1.955,0,3.818,1.38,3.818,4.255S51.7-2.07,49.749-2.07C47.771-2.07,46.069-3.473,46.069-6.348ZM76.889,0h2.6V-7.475c0-3.542-2.254-5.405-5.221-5.405a4.962,4.962,0,0,0-4.416,2.507A4.888,4.888,0,0,0,65.3-12.88a4.826,4.826,0,0,0-3.749,1.656v-1.449H58.926V0h2.622V-7.084c0-2.323,1.265-3.519,3.2-3.519,1.909,0,3.174,1.2,3.174,3.519V0h2.6V-7.084c0-2.323,1.265-3.519,3.2-3.519,1.909,0,3.174,1.2,3.174,3.519Zm23.9,0h2.6V-7.475c0-3.542-2.254-5.405-5.221-5.405a4.962,4.962,0,0,0-4.416,2.507,4.888,4.888,0,0,0-4.554-2.507,4.826,4.826,0,0,0-3.749,1.656v-1.449H82.823V0h2.622V-7.084c0-2.323,1.265-3.519,3.2-3.519,1.909,0,3.174,1.2,3.174,3.519V0h2.6V-7.084c0-2.323,1.265-3.519,3.2-3.519,1.909,0,3.174,1.2,3.174,3.519Zm11.27-10.672a3.291,3.291,0,0,1,3.542,3.2h-7.015A3.452,3.452,0,0,1,112.056-10.672Zm5.934,6.9h-2.829A3.068,3.068,0,0,1,112.171-2a3.486,3.486,0,0,1-3.611-3.358h9.683a8.088,8.088,0,0,0,.092-1.288,5.91,5.91,0,0,0-6.164-6.233c-3.749,0-6.325,2.553-6.325,6.532S108.537.207,112.171.207A5.791,5.791,0,0,0,117.99-3.772ZM129.9,0h2.6V-7.475c0-3.542-2.231-5.405-5.2-5.405a4.875,4.875,0,0,0-3.772,1.656v-1.449h-2.622V0h2.622V-7.084c0-2.323,1.265-3.519,3.2-3.519,1.909,0,3.174,1.2,3.174,3.519Zm5.06-6.394c0,3.91,2.645,6.6,5.98,6.6a5.254,5.254,0,0,0,4.393-2.116V0h2.645V-17.02h-2.645V-10.9a5.837,5.837,0,0,0-4.37-1.978C137.609-12.88,134.964-10.3,134.964-6.394Zm10.373.046A3.937,3.937,0,0,1,141.5-2.07a3.993,3.993,0,0,1-3.841-4.324A3.888,3.888,0,0,1,141.5-10.6,3.93,3.93,0,0,1,145.337-6.348Zm5.221-.046c0,3.91,2.645,6.6,5.934,6.6a5.455,5.455,0,0,0,4.439-2.093V0h2.645V-12.673h-2.645v1.84a5.394,5.394,0,0,0-4.393-2.047C153.2-12.88,150.558-10.3,150.558-6.394Zm10.373.046A3.937,3.937,0,0,1,157.09-2.07a3.993,3.993,0,0,1-3.841-4.324A3.888,3.888,0,0,1,157.09-10.6,3.93,3.93,0,0,1,160.931-6.348Zm6.509,2.829C167.44-.943,168.843,0,171.1,0h2.07V-2.185h-1.61c-1.1,0-1.472-.391-1.472-1.334v-7.015h3.082v-2.139h-3.082v-3.151H167.44v3.151h-1.5v2.139h1.5ZM175.582,0H178.2V-12.673h-2.622Zm1.334-14.352a1.654,1.654,0,0,0,1.656-1.679,1.654,1.654,0,0,0-1.656-1.679,1.659,1.659,0,0,0-1.679,1.679A1.659,1.659,0,0,0,176.916-14.352Zm16.813,8a6.25,6.25,0,0,0-6.463-6.532A6.25,6.25,0,0,0,180.8-6.348,6.179,6.179,0,0,0,187.151.207,6.348,6.348,0,0,0,193.729-6.348Zm-10.258,0c0-2.875,1.771-4.255,3.749-4.255,1.955,0,3.818,1.38,3.818,4.255s-1.932,4.278-3.887,4.278C185.173-2.07,183.471-3.473,183.471-6.348ZM205.321,0h2.6V-7.475c0-3.542-2.231-5.405-5.2-5.405a4.875,4.875,0,0,0-3.772,1.656v-1.449h-2.622V0h2.622V-7.084c0-2.323,1.265-3.519,3.2-3.519,1.909,0,3.174,1.2,3.174,3.519Zm15.387-3.542c-.138-4.577-7.291-3.151-7.291-5.7,0-.851.736-1.426,2.139-1.426a2.1,2.1,0,0,1,2.369,1.863h2.622c-.138-2.53-2.024-4.071-4.9-4.071-2.99,0-4.876,1.633-4.876,3.657,0,4.646,7.36,3.22,7.36,5.7,0,.874-.805,1.518-2.323,1.518a2.312,2.312,0,0,1-2.53-1.886h-2.714c.115,2.3,2.254,4.094,5.29,4.094C218.845.207,220.708-1.4,220.708-3.542Z" transform="translate(-10177 4050)" fill="#1b2032"/>
    <path id="Path_545" data-name="Path 545" d="M5.67-11.25v-6.81H9.45c2.67,0,3.87,1.26,3.87,3.42,0,2.1-1.2,3.39-3.87,3.39Zm11.16-3.39c0-3.39-2.43-6.21-7.38-6.21H2.25V0H5.67V-8.46H9.45C14.88-8.46,16.83-11.67,16.83-14.64ZM35.85-8.28a8.152,8.152,0,0,0-8.43-8.52,8.152,8.152,0,0,0-8.43,8.52c0,5.19,3.57,8.55,8.28,8.55A8.28,8.28,0,0,0,35.85-8.28Zm-13.38,0c0-3.75,2.31-5.55,4.89-5.55,2.55,0,4.98,1.8,4.98,5.55S29.82-2.7,27.27-2.7C24.69-2.7,22.47-4.53,22.47-8.28ZM39.78-4.59C39.78-1.23,41.61,0,44.55,0h2.7V-2.85h-2.1c-1.44,0-1.92-.51-1.92-1.74v-9.15h4.02v-2.79H43.23v-4.11H39.78v4.11H37.83v2.79h1.95Zm17.58-9.33a4.292,4.292,0,0,1,4.62,4.17H52.83A4.5,4.5,0,0,1,57.36-13.92Zm7.74,9H61.41a4,4,0,0,1-3.9,2.31A4.547,4.547,0,0,1,52.8-6.99H65.43a10.55,10.55,0,0,0,.12-1.68,7.709,7.709,0,0,0-8.04-8.13c-4.89,0-8.25,3.33-8.25,8.52S52.77.27,57.51.27A7.553,7.553,0,0,0,65.1-4.92ZM80.64,0h3.39V-9.75c0-4.62-2.91-7.05-6.78-7.05a6.359,6.359,0,0,0-4.92,2.16v-1.89H68.91V0h3.42V-9.24c0-3.03,1.65-4.59,4.17-4.59,2.49,0,4.14,1.56,4.14,4.59Zm8.28-4.59C88.92-1.23,90.75,0,93.69,0h2.7V-2.85h-2.1c-1.44,0-1.92-.51-1.92-1.74v-9.15h4.02v-2.79H92.37v-4.11H88.92v4.11H86.97v2.79h1.95ZM99.54,0h3.42V-16.53H99.54Zm1.74-18.72a2.158,2.158,0,0,0,2.16-2.19,2.158,2.158,0,0,0-2.16-2.19,2.164,2.164,0,0,0-2.19,2.19A2.164,2.164,0,0,0,101.28-18.72Zm5.04,10.38c0,5.1,3.45,8.61,7.74,8.61a7.115,7.115,0,0,0,5.79-2.73V0h3.45V-16.53h-3.45v2.4a7.036,7.036,0,0,0-5.73-2.67C109.77-16.8,106.32-13.44,106.32-8.34Zm13.53.06c0,3.57-2.43,5.58-5.01,5.58-2.55,0-5.01-2.07-5.01-5.64s2.46-5.49,5.01-5.49C117.42-13.83,119.85-11.82,119.85-8.28ZM127.8,0h3.42V-22.2H127.8Zm29.79,0h3.6l-7.47-20.88h-3.96L142.29,0h3.57l1.5-4.26h8.73Zm-2.46-7.05h-6.81l3.42-9.69ZM176.16,0h3.39V-9.75c0-4.62-2.91-7.05-6.78-7.05a6.359,6.359,0,0,0-4.92,2.16v-1.89h-3.42V0h3.42V-9.24c0-3.03,1.65-4.59,4.17-4.59,2.49,0,4.14,1.56,4.14,4.59Zm19.47,0h3.39V-9.75c0-4.62-2.91-7.05-6.78-7.05a6.359,6.359,0,0,0-4.92,2.16v-1.89H183.9V0h3.42V-9.24c0-3.03,1.65-4.59,4.17-4.59,2.49,0,4.14,1.56,4.14,4.59Zm22.71-16.53h-3.42v9.21c0,3.03-1.65,4.59-4.17,4.59-2.49,0-4.14-1.56-4.14-4.59v-9.21h-3.39v9.72c0,4.62,2.94,7.05,6.81,7.05a6.153,6.153,0,0,0,4.89-2.22V0h3.42Zm3.36,8.19c0,5.1,3.45,8.61,7.74,8.61a7.115,7.115,0,0,0,5.79-2.73V0h3.45V-16.53h-3.45v2.4a7.036,7.036,0,0,0-5.73-2.67C225.15-16.8,221.7-13.44,221.7-8.34Zm13.53.06c0,3.57-2.43,5.58-5.01,5.58-2.55,0-5.01-2.07-5.01-5.64s2.46-5.49,5.01-5.49C232.8-13.83,235.23-11.82,235.23-8.28ZM243.18,0h3.42V-22.2h-3.42ZM16.32,30.09c0-7.62-11.04-4.68-11.04-9.39,0-2.01,1.53-2.97,3.51-2.91,2.16.06,3.39,1.35,3.51,2.76h3.78c-.3-3.57-3.12-5.67-7.11-5.67-4.26,0-7.17,2.28-7.17,5.94,0,7.68,11.07,4.41,11.07,9.45,0,1.77-1.35,3.06-3.75,3.06-2.37,0-3.57-1.38-3.72-3.09H1.74c0,3.69,3.21,5.97,7.38,5.97C13.77,36.21,16.32,33.21,16.32,30.09Zm2.91-2.43c0,5.1,3.45,8.61,7.74,8.61a7.115,7.115,0,0,0,5.79-2.73V36h3.45V19.47H32.76v2.4a7.036,7.036,0,0,0-5.73-2.67C22.68,19.2,19.23,22.56,19.23,27.66Zm13.53.06c0,3.57-2.43,5.58-5.01,5.58-2.55,0-5.01-2.07-5.01-5.64s2.46-5.49,5.01-5.49C30.33,22.17,32.76,24.18,32.76,27.72Zm6-8.25L45.03,36h4.08l6.3-16.53H51.78L47.1,32.94,42.42,19.47ZM57.99,36h3.42V19.47H57.99Zm1.74-18.72a2.19,2.19,0,1,0-2.19-2.19A2.158,2.158,0,0,0,59.73,17.28ZM77.64,36h3.39V26.25c0-4.62-2.91-7.05-6.78-7.05a6.359,6.359,0,0,0-4.92,2.16V19.47H65.91V36h3.42V26.76c0-3.03,1.65-4.59,4.17-4.59,2.49,0,4.14,1.56,4.14,4.59Zm6.6-8.34c0,5.1,3.45,8.61,7.8,8.61a7.1,7.1,0,0,0,5.73-2.76v2.76c0,3.3-1.98,4.92-4.62,4.92-2.37,0-4.2-1.17-4.71-2.88H85.05c.42,3.66,3.69,5.85,8.1,5.85,5.16,0,8.07-3.39,8.07-7.89V19.47H97.77v2.4a7,7,0,0,0-5.73-2.67C87.69,19.2,84.24,22.56,84.24,27.66Zm13.53.06c0,3.57-2.43,5.58-5.01,5.58-2.55,0-5.01-2.07-5.01-5.64s2.46-5.49,5.01-5.49C95.34,22.17,97.77,24.18,97.77,27.72Zm20.28,3.66c-.18-5.97-9.51-4.11-9.51-7.44,0-1.11.96-1.86,2.79-1.86,1.86,0,2.97.99,3.09,2.43h3.42c-.18-3.3-2.64-5.31-6.39-5.31-3.9,0-6.36,2.13-6.36,4.77,0,6.06,9.6,4.2,9.6,7.44,0,1.14-1.05,1.98-3.03,1.98-1.89,0-3.18-1.11-3.3-2.46h-3.54c.15,3,2.94,5.34,6.9,5.34C115.62,36.27,118.05,34.17,118.05,31.38Z" transform="translate(-9676 4039)" fill="#1b2032"/>
    <path id="Path_560" data-name="Path 560" d="M1.89-15.75c0,9.072,3.066,15.624,11.8,15.624s11.8-6.552,11.8-15.624c0-8.988-3.066-15.54-11.8-15.54S1.89-24.738,1.89-15.75Zm16.548,0c0,4.872-.5,8.9-4.746,8.9s-4.746-4.032-4.746-8.9c0-4.7.5-8.82,4.746-8.82S18.438-20.454,18.438-15.75Z" transform="translate(-10266 3549)" fill="#1b2032"/>
    <path id="Path_561" data-name="Path 561" d="M1.716-.44H23.8V-6.556H11.924c5.1-3.916,11.4-9.548,11.4-16.588,0-5.412-3.256-9.68-10.56-9.68-5.852,0-10.912,3.344-11.132,11.132h7.26c0-3.036,1.32-4.8,3.564-4.8,2.288,0,3.344,1.5,3.344,3.828,0,5.412-7.26,11-14.08,16.632ZM27.1-16.5C27.1-7,30.316-.132,39.468-.132S51.832-7,51.832-16.5c0-9.416-3.212-16.28-12.364-16.28S27.1-25.916,27.1-16.5Zm17.336,0c0,5.1-.528,9.328-4.972,9.328S34.5-11.4,34.5-16.5c0-4.928.528-9.24,4.972-9.24S44.44-21.428,44.44-16.5ZM55.528-.44H77.616V-6.556H65.736c5.1-3.916,11.4-9.548,11.4-16.588,0-5.412-3.256-9.68-10.56-9.68-5.852,0-10.912,3.344-11.132,11.132H62.7c0-3.036,1.32-4.8,3.564-4.8,2.288,0,3.344,1.5,3.344,3.828,0,5.412-7.26,11-14.08,16.632ZM103.8-23.452c-.4-4.752-3.476-9.328-10.384-9.328-8.316,0-11.748,5.5-11.748,16.5C81.664-6.688,84.04.176,93.72.176c6.908,0,10.956-4.4,10.956-10.78,0-6.688-3.96-10.34-9.548-10.34a7.851,7.851,0,0,0-6.82,3.3c.044-6.2,1.364-9.064,4.752-9.064,2.244,0,3.3,1.144,3.74,3.256ZM93.324-15c2.816,0,4.268,1.76,4.268,4.444,0,2.728-1.628,4.356-4.18,4.356a4.1,4.1,0,0,1-4.488-4.488A4.082,4.082,0,0,1,93.324-15Z" transform="translate(-10266 3877)" fill="#1b2032"/>
    <path id="Path_562" data-name="Path 562" d="M1.89-15.75c0,9.072,3.066,15.624,11.8,15.624s11.8-6.552,11.8-15.624c0-8.988-3.066-15.54-11.8-15.54S1.89-24.738,1.89-15.75Zm16.548,0c0,4.872-.5,8.9-4.746,8.9s-4.746-4.032-4.746-8.9c0-4.7.5-8.82,4.746-8.82S18.438-20.454,18.438-15.75Z" transform="translate(-9760 3549)" fill="#1b2032"/>
    <path id="Path_546" data-name="Path 546" d="M4.312-23.188a20.078,20.078,0,0,0,.836,5.5H1.584v5.06h4.8v.088a10.773,10.773,0,0,1-4,9.02L3.432.176h22.44v-5.9H10.6a9.274,9.274,0,0,0,2.9-6.776v-.132h6.864v-5.06H12.408a17.565,17.565,0,0,1-.968-4.752c0-2.9,1.408-4.268,3.7-4.268,2.552,0,3.564,1.628,3.652,3.828H25.7c-.22-5.588-3.652-9.988-10.736-9.988C8.712-32.868,4.312-29.3,4.312-23.188ZM34.716,0h7.832V-32.12H30.36v7h4.356ZM47.432-.44H69.52V-6.556H57.64c5.1-3.916,11.4-9.548,11.4-16.588,0-5.412-3.256-9.68-10.56-9.68-5.852,0-10.912,3.344-11.132,11.132H54.6c0-3.036,1.32-4.8,3.564-4.8,2.288,0,3.344,1.5,3.344,3.828,0,5.412-7.26,11-14.08,16.632ZM78.1-17.248a8.223,8.223,0,0,0-4.884,7.832C73.216-2.992,78.54.616,85.1.616s11.88-3.608,11.88-10.032a8.236,8.236,0,0,0-4.928-7.832,7.507,7.507,0,0,0,4.136-6.908c0-4.576-3.52-8.624-11.088-8.624s-11.132,4.048-11.132,8.624A7.386,7.386,0,0,0,78.1-17.248Zm7-2.024a3.533,3.533,0,0,1-3.784-3.7A3.525,3.525,0,0,1,85.1-26.8a3.512,3.512,0,0,1,3.784,3.784A3.567,3.567,0,0,1,85.1-19.272Zm0,5.28c2.684,0,4.532,1.584,4.532,4.224,0,2.376-1.672,4.224-4.532,4.224-2.9,0-4.62-1.8-4.62-4.224C80.476-12.5,82.412-13.992,85.1-13.992ZM110.044-3.7A4.157,4.157,0,0,0,105.6-7.832,4.171,4.171,0,0,0,101.112-3.7c0,2.244,1.8,4.048,4.488,4.048A4.142,4.142,0,0,0,110.044-3.7ZM117.3,0h7.832V-32.12H112.948v7H117.3Zm18.26-17.248a8.223,8.223,0,0,0-4.884,7.832C130.68-2.992,136,.616,142.56.616s11.88-3.608,11.88-10.032a8.236,8.236,0,0,0-4.928-7.832,7.507,7.507,0,0,0,4.136-6.908c0-4.576-3.52-8.624-11.088-8.624s-11.132,4.048-11.132,8.624A7.386,7.386,0,0,0,135.564-17.248Zm7-2.024a3.533,3.533,0,0,1-3.784-3.7A3.525,3.525,0,0,1,142.56-26.8a3.512,3.512,0,0,1,3.784,3.784A3.567,3.567,0,0,1,142.56-19.272Zm0,5.28c2.684,0,4.532,1.584,4.532,4.224,0,2.376-1.672,4.224-4.532,4.224-2.9,0-4.62-1.8-4.62-4.224C137.94-12.5,139.876-13.992,142.56-13.992Z" transform="translate(-9756 4515)" fill="#1b2032"/>
    <path id="Path_563" data-name="Path 563" d="M1.716-.44H23.8V-6.556H11.924c5.1-3.916,11.4-9.548,11.4-16.588,0-5.412-3.256-9.68-10.56-9.68-5.852,0-10.912,3.344-11.132,11.132h7.26c0-3.036,1.32-4.8,3.564-4.8,2.288,0,3.344,1.5,3.344,3.828,0,5.412-7.26,11-14.08,16.632Zm25.124,0H48.928V-6.556H37.048c5.1-3.916,11.4-9.548,11.4-16.588,0-5.412-3.256-9.68-10.56-9.68-5.852,0-10.912,3.344-11.132,11.132h7.26c0-3.036,1.32-4.8,3.564-4.8,2.288,0,3.344,1.5,3.344,3.828,0,5.412-7.26,11-14.08,16.632ZM51.084,6.644h4.928L61.6-7.612H53.9ZM64.724-.44H86.812V-6.556H74.932c5.1-3.916,11.4-9.548,11.4-16.588,0-5.412-3.256-9.68-10.56-9.68-5.852,0-10.912,3.344-11.132,11.132H71.9c0-3.036,1.32-4.8,3.564-4.8,2.288,0,3.344,1.5,3.344,3.828,0,5.412-7.26,11-14.08,16.632ZM95.392-17.248a8.223,8.223,0,0,0-4.884,7.832c0,6.424,5.324,10.032,11.88,10.032s11.88-3.608,11.88-10.032a8.236,8.236,0,0,0-4.928-7.832,7.507,7.507,0,0,0,4.136-6.908c0-4.576-3.52-8.624-11.088-8.624s-11.132,4.048-11.132,8.624A7.386,7.386,0,0,0,95.392-17.248Zm7-2.024a3.533,3.533,0,0,1-3.784-3.7,3.525,3.525,0,0,1,3.784-3.828,3.512,3.512,0,0,1,3.784,3.784A3.567,3.567,0,0,1,102.388-19.272Zm0,5.28c2.684,0,4.532,1.584,4.532,4.224,0,2.376-1.672,4.224-4.532,4.224-2.9,0-4.62-1.8-4.62-4.224C97.768-12.5,99.7-13.992,102.388-13.992Zm17.38,4.576C120.12-4.488,123.508.132,130.5.132c8.624,0,11.176-6.072,11.176-17.028,0-9.768-2.552-15.972-11.7-15.972-6.82,0-11.044,4.224-11.044,10.736,0,6.82,4.224,10.252,9.724,10.252a7.668,7.668,0,0,0,6.38-2.86c0,6.116-1.1,8.8-4.268,8.8-2.332,0-3.608-1.232-4.048-3.476Zm10.6-8.4c-2.948,0-4.356-1.8-4.356-4.224,0-2.684,1.584-4.356,4.18-4.356,2.552,0,4.224,1.54,4.224,4.4A3.826,3.826,0,0,1,130.372-17.82Z" transform="translate(-10263 4515)" fill="#1b2032"/>
    <path id="Path_547" data-name="Path 547" d="M1.176-30.618v6.132H14.238L3.57,0h7.35L21.462-25.284v-5.334ZM26.334-30.7v18.27h6.93a3.393,3.393,0,0,1,3.57-2.52c2.562,0,3.948,1.47,3.948,4.242,0,2.646-1.176,4.62-3.906,4.62a3.629,3.629,0,0,1-3.864-3.024H26C26.25-3.822,30.24,0,37.128,0c6.8,0,10.584-4.2,10.584-10.668,0-4.956-2.562-10.038-9.24-10.038a7.694,7.694,0,0,0-5.628,2.1v-5.8h13.1v-6.3ZM50.568,6.342h4.7L60.606-7.266h-7.35ZM67.242,0h7.476V-30.66H63.084v6.678h4.158ZM78.918-30.618v6.132H91.98L81.312,0h7.35L99.2-25.284v-5.334Zm28.224,14.154a7.85,7.85,0,0,0-4.662,7.476c0,6.132,5.082,9.576,11.34,9.576s11.34-3.444,11.34-9.576a7.862,7.862,0,0,0-4.7-7.476,7.165,7.165,0,0,0,3.948-6.594c0-4.368-3.36-8.232-10.584-8.232s-10.626,3.864-10.626,8.232A7.05,7.05,0,0,0,107.142-16.464ZM113.82-18.4a3.372,3.372,0,0,1-3.612-3.528,3.364,3.364,0,0,1,3.612-3.654,3.353,3.353,0,0,1,3.612,3.612A3.405,3.405,0,0,1,113.82-18.4Zm0,5.04c2.562,0,4.326,1.512,4.326,4.032a3.964,3.964,0,0,1-4.326,4.032c-2.772,0-4.41-1.722-4.41-4.032C109.41-11.928,111.258-13.356,113.82-13.356Z" transform="translate(-9760 3875)" fill="#1b2032"/>
    <path id="Path_564" data-name="Path 564" d="M5.292,0h7.476V-30.66H1.134v6.678H5.292ZM19.656-30.7v18.27h6.93a3.393,3.393,0,0,1,3.57-2.52c2.562,0,3.948,1.47,3.948,4.242,0,2.646-1.176,4.62-3.906,4.62a3.629,3.629,0,0,1-3.864-3.024H19.32C19.572-3.822,23.562,0,30.45,0c6.8,0,10.584-4.2,10.584-10.668,0-4.956-2.562-10.038-9.24-10.038a7.694,7.694,0,0,0-5.628,2.1v-5.8h13.1v-6.3ZM43.89,6.342h4.7L53.928-7.266h-7.35ZM60.564,0H68.04V-30.66H56.406v6.678h4.158ZM72.7-.42H93.786V-6.258H82.446C87.318-10,93.324-15.372,93.324-22.092c0-5.166-3.108-9.24-10.08-9.24-5.586,0-10.416,3.192-10.626,10.626h6.93c0-2.9,1.26-4.578,3.4-4.578,2.184,0,3.192,1.428,3.192,3.654,0,5.166-6.93,10.5-13.44,15.876ZM96.936-15.75c0,9.072,3.066,15.624,11.8,15.624s11.8-6.552,11.8-15.624c0-8.988-3.066-15.54-11.8-15.54S96.936-24.738,96.936-15.75Zm16.548,0c0,4.872-.5,8.9-4.746,8.9s-4.746-4.032-4.746-8.9c0-4.7.5-8.82,4.746-8.82S113.484-20.454,113.484-15.75Z" transform="translate(-10258 4182)" fill="#1b2032"/>
    <path id="Path_548" data-name="Path 548" d="M5.978-32.147a27.836,27.836,0,0,0,1.159,7.625H2.2v7.015H8.845v.122c0,5.8-1.83,9.211-5.551,12.505L4.758.244h31.11V-7.93H14.7a12.857,12.857,0,0,0,4.026-9.394v-.183h9.516v-7.015H17.2A24.352,24.352,0,0,1,15.86-31.11c0-4.026,1.952-5.917,5.124-5.917,3.538,0,4.941,2.257,5.063,5.307h9.577c-.305-7.747-5.063-13.847-14.884-13.847C12.078-45.567,5.978-40.626,5.978-32.147ZM42.822-.61H73.444V-9.089H56.974c7.076-5.429,15.8-13.237,15.8-23,0-7.5-4.514-13.42-14.64-13.42-8.113,0-15.128,4.636-15.433,15.433H52.765c0-4.209,1.83-6.649,4.941-6.649,3.172,0,4.636,2.074,4.636,5.307,0,7.5-10.065,15.25-19.52,23.058ZM76.433,9.211h6.832l7.747-19.764H80.337ZM96.075-31.964h10.187c.183-2.44,1.4-4.88,4.758-4.88,2.806,0,4.575,1.647,4.575,4.636,0,4.026-3.416,4.88-6.954,4.88h-1.952v8.479h1.952c5.429,0,7.808,1.586,7.808,5.551a4.644,4.644,0,0,1-5,5c-3.843,0-5.734-2.318-5.795-5.8H95.526C95.831-4.026,102.541.366,111.813.366c9.333,0,14.7-5.368,14.7-12.871,0-5.856-3.05-9.272-7.5-10.736v-.244a10.1,10.1,0,0,0,6.71-10c0-6.71-5.063-12.078-14.457-12.078C102.175-45.567,96.441-40.748,96.075-31.964Zm39.406-12.627v26.535h10.065c.549-2.074,2.257-3.66,5.185-3.66,3.721,0,5.734,2.135,5.734,6.161,0,3.843-1.708,6.71-5.673,6.71a5.271,5.271,0,0,1-5.612-4.392H134.993C135.359-5.551,141.154,0,151.158,0c9.882,0,15.372-6.1,15.372-15.494,0-7.2-3.721-14.579-13.42-14.579-3.538,0-6.588,1.281-8.174,3.05v-8.418h19.032v-9.15Zm68.5,12.078c-.549-6.588-4.819-12.932-14.4-12.932-11.529,0-16.287,7.625-16.287,22.875C173.3-9.272,176.6.244,190.015.244c9.577,0,15.189-6.1,15.189-14.945,0-9.272-5.49-14.335-13.237-14.335-4.087,0-7.686,1.708-9.455,4.575.061-8.6,1.891-12.566,6.588-12.566,3.111,0,4.575,1.586,5.185,4.514ZM189.466-20.8c3.9,0,5.917,2.44,5.917,6.161,0,3.782-2.257,6.039-5.795,6.039-3.965,0-6.222-2.318-6.222-6.222C183.366-18.849,186.172-20.8,189.466-20.8ZM209.535,9.211h6.832l7.747-19.764H213.439Zm18.239-53.68v8.906h18.971L231.251,0h10.675l15.311-36.722v-7.747Zm65.392,11.956c-.549-6.588-4.819-12.932-14.4-12.932-11.529,0-16.287,7.625-16.287,22.875,0,13.3,3.294,22.814,16.714,22.814,9.577,0,15.189-6.1,15.189-14.945,0-9.272-5.49-14.335-13.237-14.335-4.087,0-7.686,1.708-9.455,4.575.061-8.6,1.891-12.566,6.588-12.566,3.111,0,4.575,1.586,5.185,4.514ZM278.648-20.8c3.9,0,5.917,2.44,5.917,6.161,0,3.782-2.257,6.039-5.8,6.039-3.965,0-6.222-2.318-6.222-6.222C272.548-18.849,275.354-20.8,278.648-20.8ZM321.043,0h10.431V-7.93h5v-9.028h-5V-43.92H319.823L300.547-16.348V-7.93h20.5Zm-9.516-16.958,10.248-15.494v15.494Z" transform="translate(-9748 4189)" fill="#fff"/>
    <g id="noun_code_4213617" transform="translate(-10258.261 4024.419)">
      <g id="Group_435" data-name="Group 435" transform="translate(0 0)">
        <path id="Path_172" data-name="Path 172" d="M653.629,374.141a2.731,2.731,0,0,1,1.81,3.146l-.083.308L644.434,410.36a2.73,2.73,0,0,1-5.264-1.419l.083-.308,10.922-32.766A2.73,2.73,0,0,1,653.629,374.141Zm-17.792,9.143a2.73,2.73,0,0,1-.285,3.6l-.261.223-8.008,6.007,8.008,6.007a2.731,2.731,0,0,1,.734,3.536l-.188.287a2.731,2.731,0,0,1-3.536.735l-.287-.188L621.092,395.3a2.731,2.731,0,0,1-.272-4.136l.272-.232,10.922-8.191A2.73,2.73,0,0,1,635.837,383.284Zm26.472-.735.287.188,10.922,8.191a2.732,2.732,0,0,1,.272,4.136l-.272.232L662.6,403.49a2.731,2.731,0,0,1-3.538-4.146l.261-.222,8.008-6.007-8.008-6.007a2.731,2.731,0,0,1-.734-3.536l.189-.287A2.731,2.731,0,0,1,662.309,382.549Z" transform="translate(-620 -374)" fill="#1b2032"/>
      </g>
    </g>
    <path id="Path_565" data-name="Path 565" d="M28,0A28,28,0,1,1,0,28,28,28,0,0,1,28,0Z" transform="translate(-9758 4018)" fill="#1b2032"/>
    <path id="Path_566" data-name="Path 566" d="M2.352-12.648a10.952,10.952,0,0,0,.456,3H.864v2.76H3.48v.048A5.876,5.876,0,0,1,1.3-1.92L1.872.1h12.24V-3.12H5.784a5.059,5.059,0,0,0,1.584-3.7v-.072h3.744v-2.76H6.768A9.581,9.581,0,0,1,6.24-12.24c0-1.584.768-2.328,2.016-2.328,1.392,0,1.944.888,1.992,2.088h3.768c-.12-3.048-1.992-5.448-5.856-5.448C4.752-17.928,2.352-15.984,2.352-12.648Z" transform="translate(-9738 4055)" fill="#92cb29"/>
    <g id="noun_Money_3212876" transform="translate(-9757.057 4341.56)">
      <path id="Path_175" data-name="Path 175" d="M25.09,22.755c2.035.171,4.108.285,6.162.285a58.959,58.959,0,0,0,14.226-1.693,31.74,31.74,0,0,0,3.8-1.2A20.921,20.921,0,0,0,53.41,18v5.991a3.442,3.442,0,0,1-1.617,2.4c-3.119,2.358-10.5,4.66-20.579,4.66a52.968,52.968,0,0,1-12.5-1.369,29.438,29.438,0,0,1-4.336-1.312C10.94,27,9,25.36,9,23.991V18a21.663,21.663,0,0,0,4.26,2.092A47,47,0,0,0,25.09,22.755Z" transform="translate(-9 15.284)" fill="#1b2032"/>
      <path id="Path_176" data-name="Path 176" d="M41.935,20.189A38.03,38.03,0,0,0,46.575,20a54.452,54.452,0,0,0,6.219-.78,12.306,12.306,0,0,1-2.986,1.9,32.7,32.7,0,0,1-7.037,2.092,55.726,55.726,0,0,1-10.917,1.008,55.784,55.784,0,0,1-10.936-1.008A32.163,32.163,0,0,1,13.9,21.064c-2.758-1.274-4.26-2.7-4.26-3.9,0-1.56,2.53-3.5,7-4.945,1.731,2.739,5.706,4.793,10.575,6.143A57.913,57.913,0,0,0,41.935,20.189Z" transform="translate(-9.602 10.07)" fill="#1b2032"/>
      <path id="Path_177" data-name="Path 177" d="M36.705,19.478a55.5,55.5,0,0,1-10.9.989c-10.575,0-18.163-2.53-20.921-5.04A2.8,2.8,0,0,1,3.65,13.411V7.42A20.92,20.92,0,0,0,7.891,9.512a29.29,29.29,0,0,0,3.233,1.065,57.914,57.914,0,0,0,14.721,1.9,42.227,42.227,0,0,0,4.641-.171A46.9,46.9,0,0,0,43.8,9.588,21.663,21.663,0,0,0,48.06,7.5v5.991c0,1.56-2.53,3.5-7,4.945a38.207,38.207,0,0,1-4.355,1.046Z" transform="translate(6.525 5.741)" fill="#1b2032"/>
      <path id="Path_178" data-name="Path 178" d="M43.819,11.455A32.161,32.161,0,0,1,36.8,13.6a55.688,55.688,0,0,1-10.936,1.027A55.631,55.631,0,0,1,14.948,13.6a32.7,32.7,0,0,1-7.037-2.149C5.173,10.181,3.67,8.773,3.67,7.651,3.708,4.665,12.324.5,25.865.5S48.08,4.665,48.08,7.556C48.08,8.773,46.577,10.181,43.819,11.455Z" transform="translate(6.467 -0.5)" fill="#1b2032"/>
    </g>
    <g id="noun_Bell_4257148" transform="translate(-10264.062 3370.539)">
      <path id="Path_183" data-name="Path 183" d="M45.9,11.4a6.405,6.405,0,1,0-10.8,4.645,13.668,13.668,0,0,0-9.029,10.35L23.91,37.6a26.314,26.314,0,0,1-7.473,13.863,1.976,1.976,0,0,0,1.379,3.391H61.179a1.976,1.976,0,0,0,1.379-3.391A26.314,26.314,0,0,1,55.085,37.6L52.924,26.395a13.668,13.668,0,0,0-9.029-10.35A6.381,6.381,0,0,0,45.9,11.4ZM39.5,8.457A2.942,2.942,0,1,1,36.555,11.4,2.942,2.942,0,0,1,39.5,8.457Z" transform="translate(-15.84 -4.981)" fill="#1b2032"/>
      <path id="Path_184" data-name="Path 184" d="M54.789,83.143H37.566a8.621,8.621,0,0,0,17.223,0Z" transform="translate(-22.52 -29.012)" fill="#1b2032"/>
    </g>
    <g id="Group_463" data-name="Group 463" transform="translate(-9944.03 3523.163)">
      <g id="noun_Arrow_688106" transform="translate(0 0)">
        <path id="Path_186" data-name="Path 186" d="M41.638,975.147a1.914,1.914,0,0,1-.462,1.174l-9.1,9.674a1.956,1.956,0,0,1-2.489.141,1.779,1.779,0,0,1,.018-2.49l6.4-6.792H12.618a1.707,1.707,0,0,1,0-3.415H36l-6.4-6.793a1.88,1.88,0,0,1-.018-2.489,1.931,1.931,0,0,1,2.489.142l9.1,9.674A1.642,1.642,0,0,1,41.638,975.147Z" transform="translate(-10.911 -963.764)" fill="#d1d2d6"/>
      </g>
    </g>
    <g id="Group_464" data-name="Group 464" transform="translate(-9944.03 3848.982)">
      <g id="noun_Arrow_688106-2" data-name="noun_Arrow_688106" transform="translate(0 0)">
        <path id="Path_186-2" data-name="Path 186" d="M41.638,975.147a1.914,1.914,0,0,1-.462,1.174l-9.1,9.674a1.956,1.956,0,0,1-2.489.141,1.779,1.779,0,0,1,.018-2.49l6.4-6.792H12.618a1.707,1.707,0,0,1,0-3.415H36l-6.4-6.793a1.88,1.88,0,0,1-.018-2.489,1.931,1.931,0,0,1,2.489.142l9.1,9.674A1.642,1.642,0,0,1,41.638,975.147Z" transform="translate(-10.911 -963.764)" fill="#d1d2d6"/>
      </g>
    </g>
    <g id="Group_459" data-name="Group 459" transform="translate(-9435.807 3848.982)">
      <g id="noun_Arrow_688106-3" data-name="noun_Arrow_688106" transform="translate(0 0)">
        <path id="Path_186-3" data-name="Path 186" d="M41.638,975.147a1.914,1.914,0,0,1-.462,1.174l-9.1,9.674a1.956,1.956,0,0,1-2.489.141,1.779,1.779,0,0,1,.018-2.49l6.4-6.792H12.618a1.707,1.707,0,0,1,0-3.415H36l-6.4-6.793a1.88,1.88,0,0,1-.018-2.489,1.931,1.931,0,0,1,2.489.142l9.1,9.674A1.642,1.642,0,0,1,41.638,975.147Z" transform="translate(-10.911 -963.764)" fill="#d1d2d6"/>
      </g>
    </g>
    <g id="Group_458" data-name="Group 458" transform="translate(-9943.312 4487.087)">
      <g id="noun_Arrow_688106-4" data-name="noun_Arrow_688106" transform="translate(0 0)">
        <path id="Path_186-4" data-name="Path 186" d="M41.383,975.052a1.9,1.9,0,0,1-.458,1.164L31.9,985.81a1.94,1.94,0,0,1-2.469.141,1.764,1.764,0,0,1,.017-2.469l6.348-6.736H12.6a1.693,1.693,0,0,1,0-3.386H35.793l-6.348-6.737a1.864,1.864,0,0,1-.017-2.468,1.914,1.914,0,0,1,2.469.141l9.029,9.593A1.628,1.628,0,0,1,41.383,975.052Z" transform="translate(-10.911 -963.764)" fill="#d1d2d6"/>
      </g>
    </g>
    <g id="Group_457" data-name="Group 457" transform="translate(-9438.57 4487.087)">
      <g id="noun_Arrow_688106-5" data-name="noun_Arrow_688106" transform="translate(0 0)">
        <path id="Path_186-5" data-name="Path 186" d="M41.383,975.052a1.9,1.9,0,0,1-.458,1.164L31.9,985.81a1.94,1.94,0,0,1-2.469.141,1.764,1.764,0,0,1,.017-2.469l6.348-6.736H12.6a1.693,1.693,0,0,1,0-3.386H35.793l-6.348-6.737a1.864,1.864,0,0,1-.017-2.468,1.914,1.914,0,0,1,2.469.141l9.029,9.593A1.628,1.628,0,0,1,41.383,975.052Z" transform="translate(-10.911 -963.764)" fill="#d1d2d6"/>
      </g>
    </g>
    <g id="Group_460" data-name="Group 460" transform="translate(-9439.663 3523.163)">
      <g id="noun_Arrow_688106-6" data-name="noun_Arrow_688106" transform="translate(0 0)">
        <path id="Path_186-6" data-name="Path 186" d="M41.638,975.147a1.914,1.914,0,0,1-.462,1.174l-9.1,9.674a1.956,1.956,0,0,1-2.489.141,1.779,1.779,0,0,1,.018-2.49l6.4-6.792H12.618a1.707,1.707,0,0,1,0-3.415H36l-6.4-6.793a1.88,1.88,0,0,1-.018-2.489,1.931,1.931,0,0,1,2.489.142l9.1,9.674A1.642,1.642,0,0,1,41.638,975.147Z" transform="translate(-10.911 -963.764)" fill="#d1d2d6"/>
      </g>
    </g>
    <g id="Group_461" data-name="Group 461" transform="translate(-9943.312 4163.972)">
      <g id="noun_Arrow_688106-7" data-name="noun_Arrow_688106" transform="translate(0 0)">
        <path id="Path_186-7" data-name="Path 186" d="M41.383,975.052a1.9,1.9,0,0,1-.458,1.164L31.9,985.81a1.94,1.94,0,0,1-2.469.141,1.764,1.764,0,0,1,.017-2.469l6.348-6.736H12.6a1.693,1.693,0,0,1,0-3.386H35.793l-6.348-6.737a1.864,1.864,0,0,1-.017-2.468,1.914,1.914,0,0,1,2.469.141l9.029,9.593A1.628,1.628,0,0,1,41.383,975.052Z" transform="translate(-10.911 -963.764)" fill="#d1d2d6"/>
      </g>
    </g>
    <path id="noun_Badge_329893" d="M63.4,32.02H63.4a8.081,8.081,0,0,1-.525-1.621,9.317,9.317,0,0,1,.527-5.653H63.4a6.525,6.525,0,0,0-2.929-9l.007-.005a8.29,8.29,0,0,1-1.377-1,9.345,9.345,0,0,1-2.9-4.882l-.009.005a6.507,6.507,0,0,0-2.316-4.181c-.1-.085-.21-.168-.32-.248a6.5,6.5,0,0,0-5.028-1.136l0-.009a8.349,8.349,0,0,1-1.7,0,9.343,9.343,0,0,1-5.217-2.248l0,.01a6.528,6.528,0,0,0-9.472,0l0-.012a8.237,8.237,0,0,1-1.38,1,9.347,9.347,0,0,1-5.542,1.247l.005.014a6.531,6.531,0,0,0-7.665,5.565L17.54,9.85a8.149,8.149,0,0,1-.528,1.619,9.323,9.323,0,0,1-3.75,4.264l.01.009a6.526,6.526,0,0,0-2.927,9h-.012a8.313,8.313,0,0,1,.525,1.621,9.329,9.329,0,0,1-.525,5.653h.012a6.527,6.527,0,0,0,2.927,9.006l-.009.007a8.036,8.036,0,0,1,1.375,1,9.326,9.326,0,0,1,2.9,4.884l.01-.01a6.809,6.809,0,0,0,.173.852,6.529,6.529,0,0,0,7.492,4.714l0,.01a8.232,8.232,0,0,1,1.7,0,9.34,9.34,0,0,1,5.216,2.248l.005-.014a6.532,6.532,0,0,0,9.472,0l0,.007a8.177,8.177,0,0,1,1.382-1,9.327,9.327,0,0,1,5.54-1.247l0-.01c.211.038.421.069.635.087a6.528,6.528,0,0,0,7.028-5.653l.007.007a8.033,8.033,0,0,1,.528-1.621,9.337,9.337,0,0,1,3.752-4.264l-.011-.007A6.525,6.525,0,0,0,63.4,32.02Z" transform="translate(-9768.215 3373.326)" fill="#1b2032"/>
    <path id="noun_cart_1832887" d="M3.417,273.453a1.775,1.775,0,0,0-.407,3.513l3.924.86c2.076,9.931,4.339,19.821,6.533,29.727a1.775,1.775,0,0,0,1.733,1.39H46.365a1.775,1.775,0,1,0,0-3.549H16.626l-.786-3.548h32.1a1.775,1.775,0,0,0,1.733-1.39l3.93-17.744a1.775,1.775,0,0,0-1.732-2.158q-20.367,0-40.733-.007l-.965-4.577A1.775,1.775,0,0,0,8.815,274.6l-5.046-1.1a1.749,1.749,0,0,0-.351-.045Zm19.171,36.674a4.732,4.732,0,1,0,4.732,4.732A4.759,4.759,0,0,0,22.588,310.127Zm16.562,0a4.732,4.732,0,1,0,4.732,4.732A4.759,4.759,0,0,0,39.15,310.127Z" transform="translate(-10266.51 3427.758)" fill="#1b2032"/>
    <g id="noun_User_2835305" transform="translate(-9758.664 3692.591)">
      <path id="Path_187" data-name="Path 187" d="M31.3,0A31.222,31.222,0,1,0,62.445,31.3,31.312,31.312,0,0,0,31.3,0Zm0,12.4a9.374,9.374,0,0,1,0,18.748,9.374,9.374,0,0,1,0-18.748ZM29.82,57.13A26.142,26.142,0,0,1,9.448,45.32c7.529-11.662,36.02-11.515,43.549,0C47.682,53.587,39.711,57.13,29.82,57.13Z" fill="#1b2032"/>
    </g>
    <g id="noun_id_2273850" transform="translate(-10261.6 4326.031)">
      <path id="Path_188" data-name="Path 188" d="M168.309,81.361H150.076a6.654,6.654,0,0,1-12.934,0H119.3a2.8,2.8,0,0,0-2.8,2.8v58.193a2.8,2.8,0,0,0,2.8,2.8h49.008a2.8,2.8,0,0,0,2.8-2.8V84.162A2.8,2.8,0,0,0,168.309,81.361Zm-6.115,50.582H125.024v-1.566a18.617,18.617,0,0,1,12.429-17.536,10.839,10.839,0,1,1,12.313,0,18.617,18.617,0,0,1,12.429,17.536Z" transform="translate(-116.5 -75.87)" fill="#1b2032"/>
      <circle id="Ellipse_15" data-name="Ellipse 15" cx="3.523" cy="3.523" r="3.523" transform="translate(23.782 0)" fill="#1b2032"/>
    </g>
  </g>
</svg>
