<svg xmlns="http://www.w3.org/2000/svg" xmlns:xlink="http://www.w3.org/1999/xlink" width="1359" height="1747" viewBox="0 0 1359 1747">
  <defs>
    <filter id="Path_574" x="694" y="901" width="515" height="328" filterUnits="userSpaceOnUse">
      <feOffset dx="2" dy="2" input="SourceAlpha"/>
      <feGaussianBlur stdDeviation="10" result="blur"/>
      <feFlood flood-color="#1b2032" flood-opacity="0.149"/>
      <feComposite operator="in" in2="blur"/>
      <feComposite in="SourceGraphic"/>
    </filter>
  </defs>
  <g id="Group_610" data-name="Group 610" transform="translate(10178 -717)">
    <path id="Path_582" data-name="Path 582" d="M196.5,0C305.024,0,393,88.2,393,197S305.024,394,196.5,394,0,305.8,0,197,87.976,0,196.5,0Z" transform="translate(-9212 717)" fill="#92cb29"/>
    <path id="Path_583" data-name="Path 583" d="M320.5,0C497.507,0,641,143.94,641,321.5S497.507,643,320.5,643,0,499.06,0,321.5,143.493,0,320.5,0Z" transform="translate(-10178 1821)" fill="#1b2032"/>
    <path id="Path_571" data-name="Path 571" d="M27.942,0H1049.807a27.942,27.942,0,0,1,27.942,27.942V1433.006a27.942,27.942,0,0,1-27.942,27.942H27.942A27.942,27.942,0,0,1,0,1433.006V27.942A27.942,27.942,0,0,1,27.942,0Z" transform="translate(-10023 844)" fill="#f6f6f6"/>
    <path id="Path_607" data-name="Path 607" d="M38.01,0H48.37L30.8-48.93H19.39L1.82,0H12.11l3.22-9.31H34.79ZM32.13-17.15H17.99l7.07-20.44ZM80.99-38.78H52.85v8.05H69.72L52.78-7.91V0H81.2V-8.05H63.91L80.99-30.87Zm44.38,0H115.5v21.35c0,6.23-3.36,9.59-8.68,9.59-5.18,0-8.61-3.36-8.61-9.59V-38.78h-9.8v22.75C88.41-5.39,94.92.49,103.95.49A14.3,14.3,0,0,0,115.5-4.9V0h9.87Zm19.46,19.46c0-7.49,3.5-9.73,9.31-9.73h2.59V-39.34a13.45,13.45,0,0,0-11.9,6.58v-6.02h-9.8V0h9.8Zm35.14-12.04c5.04,0,9.1,3.22,9.24,8.33H170.8C171.57-28.35,175.28-31.36,179.97-31.36Zm18.41,19.18H187.81a7.991,7.991,0,0,1-7.77,4.69c-4.9,0-8.82-3.22-9.31-8.96h28.35a22.905,22.905,0,0,0,.28-3.78c0-11.55-7.91-19.18-19.11-19.18-11.48,0-19.46,7.77-19.46,20.02,0,12.18,8.19,20.02,19.46,20.02C189.84.63,196.28-5.04,198.38-12.18Z" transform="translate(-9963 958)" fill="#1b2032"/>
    <path id="Path_584" data-name="Path 584" d="M7,0H444a7,7,0,0,1,7,7V260a7,7,0,0,1-7,7H7a7,7,0,0,1-7-7V7A7,7,0,0,1,7,0Z" transform="translate(-9963 1008)" fill="#fff"/>
    <path id="Path_585" data-name="Path 585" d="M7,0H444a7,7,0,0,1,7,7V268a7,7,0,0,1-7,7H7a7,7,0,0,1-7-7V7A7,7,0,0,1,7,0Z" transform="translate(-9963 1323)" fill="#fff"/>
    <path id="Path_586" data-name="Path 586" d="M7,0H444a7,7,0,0,1,7,7V260a7,7,0,0,1-7,7H7a7,7,0,0,1-7-7V7A7,7,0,0,1,7,0Z" transform="translate(-9460 1008)" fill="#fff"/>
    <path id="Path_572" data-name="Path 572" d="M10,0H445a10,10,0,0,1,10,10V265a10,10,0,0,1-10,10H10A10,10,0,0,1,0,265V10A10,10,0,0,1,10,0Z" transform="translate(-9456 1962)" fill="#fff"/>
    <path id="Path_587" data-name="Path 587" d="M7,0H448a7,7,0,0,1,7,7V268a7,7,0,0,1-7,7H7a7,7,0,0,1-7-7V7A7,7,0,0,1,7,0Z" transform="translate(-9963 1962)" fill="#fff"/>
    <path id="Path_588" data-name="Path 588" d="M7,0H444a7,7,0,0,1,7,7V268a7,7,0,0,1-7,7H7a7,7,0,0,1-7-7V7A7,7,0,0,1,7,0Z" transform="translate(-9460 1323)" fill="#fff"/>
    <path id="Path_589" data-name="Path 589" d="M7,0H448a7,7,0,0,1,7,7V261a7,7,0,0,1-7,7H7a7,7,0,0,1-7-7V7A7,7,0,0,1,7,0Z" transform="translate(-9963 1646)" fill="#fff"/>
    <g transform="matrix(1, 0, 0, 1, -10178, 717)" filter="url(#Path_574)">
      <path id="Path_574-2" data-name="Path 574" d="M7,0H448a7,7,0,0,1,7,7V261a7,7,0,0,1-7,7H7a7,7,0,0,1-7-7V7A7,7,0,0,1,7,0Z" transform="translate(722 929)" fill="#92cb29"/>
    </g>
    <g id="Layer_21" data-name="Layer 21" transform="translate(-9917.097 1051.573)">
      <path id="Path_167" data-name="Path 167" d="M56.9,38.268V36.394a16.314,16.314,0,0,0-32.614,0v1.291H22.6a12.1,12.1,0,0,0,0,24.2H53.218A12.1,12.1,0,0,0,56.9,38.3Z" transform="translate(-10.5 -20.556)" fill="#1b2032"/>
    </g>
    <path id="Path_590" data-name="Path 590" d="M10.741-4.577c0,1.541-1.081,2.438-2.852,2.438H4.347V-7.13H7.8C9.545-7.13,10.741-6.164,10.741-4.577Zm-.414-6.969c0,1.472-1.035,2.277-2.737,2.277H4.347v-4.577H7.59C9.292-13.846,10.327-12.995,10.327-11.546ZM13.363-4.3a3.976,3.976,0,0,0-3.082-3.91,3.74,3.74,0,0,0,2.714-3.657c0-2.254-1.794-4.117-5.175-4.117h-6.1V0H8.119C11.385,0,13.363-1.863,13.363-4.3Zm1.978-2.093c0,3.91,2.645,6.6,5.934,6.6a5.455,5.455,0,0,0,4.439-2.093V0h2.645V-12.673H25.714v1.84a5.394,5.394,0,0,0-4.393-2.047C17.986-12.88,15.341-10.3,15.341-6.394Zm10.373.046A3.937,3.937,0,0,1,21.873-2.07a3.993,3.993,0,0,1-3.841-4.324A3.888,3.888,0,0,1,21.873-10.6,3.93,3.93,0,0,1,25.714-6.348Zm5.221,0c0,3.979,2.576,6.555,6.21,6.555A5.692,5.692,0,0,0,42.987-4H40.158a2.894,2.894,0,0,1-3.013,2c-2.116,0-3.519-1.564-3.519-4.347,0-2.76,1.4-4.324,3.519-4.324a2.962,2.962,0,0,1,3.013,2h2.829c-.713-2.668-2.737-4.209-5.842-4.209C33.511-12.88,30.935-10.3,30.935-6.348ZM45.609,0h2.622V-5.451L52.923,0h3.542L50.623-6.325l5.842-6.348H52.831l-4.6,5.543v-9.89H45.609ZM69.828-12.673H67.206v7.061c0,2.323-1.265,3.519-3.2,3.519-1.909,0-3.174-1.2-3.174-3.519v-7.061h-2.6v7.452c0,3.542,2.254,5.4,5.221,5.4a4.717,4.717,0,0,0,3.749-1.7V0h2.622ZM75.9-10.81v-1.863H73.278v18.7H75.9V-1.84A5.73,5.73,0,0,0,80.316.207c3.335,0,5.957-2.691,5.957-6.6s-2.622-6.486-5.957-6.486A5.53,5.53,0,0,0,75.9-10.81Zm7.705,4.416A4,4,0,0,1,79.741-2.07,3.951,3.951,0,0,1,75.9-6.348,3.943,3.943,0,0,1,79.741-10.6,3.892,3.892,0,0,1,83.605-6.394Z" transform="translate(-9839 1080)" fill="#1b2032"/>
    <path id="Path_591" data-name="Path 591" d="M.9-13.846H5.175V0H7.8V-13.846h4.255v-2.139H.9Zm25.875,7.5a6.25,6.25,0,0,0-6.463-6.532,6.25,6.25,0,0,0-6.463,6.532A6.179,6.179,0,0,0,20.194.207,6.348,6.348,0,0,0,26.772-6.348Zm-10.258,0c0-2.875,1.771-4.255,3.749-4.255,1.955,0,3.818,1.38,3.818,4.255S22.149-2.07,20.194-2.07C18.216-2.07,16.514-3.473,16.514-6.348ZM29.785-3.519C29.785-.943,31.188,0,33.442,0h2.07V-2.185H33.9c-1.1,0-1.472-.391-1.472-1.334v-7.015h3.082v-2.139H32.43v-3.151H29.785v3.151h-1.5v2.139h1.5Zm7.268-2.875c0,3.91,2.645,6.6,5.934,6.6a5.455,5.455,0,0,0,4.439-2.093V0h2.645V-12.673H47.426v1.84a5.394,5.394,0,0,0-4.393-2.047C39.7-12.88,37.053-10.3,37.053-6.394Zm10.373.046A3.937,3.937,0,0,1,43.585-2.07a3.993,3.993,0,0,1-3.841-4.324A3.888,3.888,0,0,1,43.585-10.6,3.93,3.93,0,0,1,47.426-6.348ZM53.521,0h2.622V-17.02H53.521ZM64.7-8.027A7.982,7.982,0,0,0,72.864.138a7.6,7.6,0,0,0,7.429-4.784H77.142a4.466,4.466,0,0,1-4.278,2.507c-3.174,0-5.474-2.277-5.474-5.888s2.3-5.865,5.474-5.865a4.466,4.466,0,0,1,4.278,2.507h3.151a7.62,7.62,0,0,0-7.429-4.807A8,8,0,0,0,64.7-8.027ZM95.427-6.348a6.25,6.25,0,0,0-6.463-6.532A6.25,6.25,0,0,0,82.5-6.348,6.179,6.179,0,0,0,88.849.207,6.348,6.348,0,0,0,95.427-6.348Zm-10.258,0c0-2.875,1.771-4.255,3.749-4.255,1.955,0,3.818,1.38,3.818,4.255S90.8-2.07,88.849-2.07C86.871-2.07,85.169-3.473,85.169-6.348Zm22.31,2.806c-.138-4.577-7.291-3.151-7.291-5.7,0-.851.736-1.426,2.139-1.426A2.1,2.1,0,0,1,104.7-8.809h2.622c-.138-2.53-2.024-4.071-4.9-4.071-2.99,0-4.876,1.633-4.876,3.657,0,4.646,7.36,3.22,7.36,5.7C104.9-2.645,104.1-2,102.58-2a2.312,2.312,0,0,1-2.53-1.886H97.336c.115,2.3,2.254,4.094,5.29,4.094C105.616.207,107.479-1.4,107.479-3.542Zm3.243.023c0,2.576,1.4,3.519,3.657,3.519h2.07V-2.185h-1.61c-1.1,0-1.472-.391-1.472-1.334v-7.015h3.082v-2.139h-3.082v-3.151h-2.645v3.151h-1.5v2.139h1.5Zm17.6-.023c-.138-4.577-7.291-3.151-7.291-5.7,0-.851.736-1.426,2.139-1.426a2.1,2.1,0,0,1,2.369,1.863h2.622c-.138-2.53-2.024-4.071-4.9-4.071-2.99,0-4.876,1.633-4.876,3.657,0,4.646,7.36,3.22,7.36,5.7,0,.874-.805,1.518-2.323,1.518a2.312,2.312,0,0,1-2.53-1.886h-2.714c.115,2.3,2.254,4.094,5.29,4.094C126.454.207,128.317-1.4,128.317-3.542Z" transform="translate(-9851 1404)" fill="#1b2032"/>
    <path id="Path_592" data-name="Path 592" d="M12.512-4.531c0-5.842-8.464-3.588-8.464-7.2,0-1.541,1.173-2.277,2.691-2.231A2.5,2.5,0,0,1,9.43-11.845h2.9c-.23-2.737-2.392-4.347-5.451-4.347-3.266,0-5.5,1.748-5.5,4.554,0,5.888,8.487,3.381,8.487,7.245,0,1.357-1.035,2.346-2.875,2.346A2.565,2.565,0,0,1,4.14-4.416H1.334C1.334-1.587,3.8.161,6.992.161,10.557.161,12.512-2.139,12.512-4.531Zm4.922-3.5c0-3.611,2.3-5.865,5.474-5.865s5.474,2.254,5.474,5.865-2.3,5.911-5.474,5.911S17.434-4.416,17.434-8.027Zm13.639,0a7.969,7.969,0,0,0-8.165-8.165,8,8,0,0,0-8.165,8.165A8,8,0,0,0,22.908.161a8.131,8.131,0,0,0,2.277-.3L27.991,2.9h3.335L27.485-1.173A7.93,7.93,0,0,0,31.073-8.027Zm2.645-7.958V0h8.027V-2.116h-5.4V-15.985Zm21.413,0H49.91V0h5.221c5.129,0,8.487-3.013,8.487-7.935C63.618-12.88,60.26-15.985,55.131-15.985Zm-2.6,13.846V-13.846h2.6c3.772,0,5.8,2.254,5.8,5.911,0,3.634-2.024,5.8-5.8,5.8ZM65.343-6.394c0,3.91,2.645,6.6,5.934,6.6a5.455,5.455,0,0,0,4.439-2.093V0h2.645V-12.673H75.716v1.84a5.394,5.394,0,0,0-4.393-2.047C67.988-12.88,65.343-10.3,65.343-6.394Zm10.373.046A3.937,3.937,0,0,1,71.875-2.07a3.993,3.993,0,0,1-3.841-4.324A3.888,3.888,0,0,1,71.875-10.6,3.93,3.93,0,0,1,75.716-6.348Zm6.509,2.829C82.225-.943,83.628,0,85.882,0h2.07V-2.185h-1.61c-1.1,0-1.472-.391-1.472-1.334v-7.015h3.082v-2.139H84.87v-3.151H82.225v3.151h-1.5v2.139h1.5Zm7.268-2.875c0,3.91,2.645,6.6,5.934,6.6a5.455,5.455,0,0,0,4.439-2.093V0h2.645V-12.673H99.866v1.84a5.394,5.394,0,0,0-4.393-2.047C92.138-12.88,89.493-10.3,89.493-6.394Zm10.373.046A3.937,3.937,0,0,1,96.025-2.07a3.993,3.993,0,0,1-3.841-4.324A3.888,3.888,0,0,1,96.025-10.6,3.93,3.93,0,0,1,99.866-6.348Zm8.717-4.439V-17.02h-2.622V0h2.622V-1.84A5.386,5.386,0,0,0,113,.207c3.335,0,5.957-2.691,5.957-6.6s-2.6-6.486-5.957-6.486A5.418,5.418,0,0,0,108.583-10.787Zm7.705,4.393a4,4,0,0,1-3.864,4.324,3.951,3.951,0,0,1-3.841-4.278,3.943,3.943,0,0,1,3.841-4.255A3.892,3.892,0,0,1,116.288-6.394Zm4.393,0c0,3.91,2.645,6.6,5.934,6.6a5.455,5.455,0,0,0,4.439-2.093V0H133.7V-12.673h-2.645v1.84a5.394,5.394,0,0,0-4.393-2.047C123.326-12.88,120.681-10.3,120.681-6.394Zm10.373.046a3.937,3.937,0,0,1-3.841,4.278,3.993,3.993,0,0,1-3.841-4.324,3.888,3.888,0,0,1,3.841-4.209A3.93,3.93,0,0,1,131.054-6.348ZM146.6-3.542c-.138-4.577-7.291-3.151-7.291-5.7,0-.851.736-1.426,2.139-1.426a2.1,2.1,0,0,1,2.369,1.863h2.622c-.138-2.53-2.024-4.071-4.9-4.071-2.99,0-4.876,1.633-4.876,3.657,0,4.646,7.36,3.22,7.36,5.7,0,.874-.805,1.518-2.323,1.518a2.312,2.312,0,0,1-2.53-1.886h-2.714c.115,2.3,2.254,4.094,5.29,4.094C144.739.207,146.6-1.4,146.6-3.542Zm8.165-7.13a3.291,3.291,0,0,1,3.542,3.2h-7.015A3.452,3.452,0,0,1,154.767-10.672Zm5.934,6.9h-2.829A3.068,3.068,0,0,1,154.882-2a3.486,3.486,0,0,1-3.611-3.358h9.683a8.088,8.088,0,0,0,.092-1.288,5.91,5.91,0,0,0-6.164-6.233c-3.749,0-6.325,2.553-6.325,6.532S151.248.207,154.882.207A5.791,5.791,0,0,0,160.7-3.772Z" transform="translate(-9336 1080)" fill="#1b2032"/>
    <path id="Path_575" data-name="Path 575" d="M12.236-16.008V-4.094L4.347-16.008H1.725V0H4.347V-11.937L12.236,0h2.622V-16.008Zm11.408,5.336a3.291,3.291,0,0,1,3.542,3.2H20.171A3.452,3.452,0,0,1,23.644-10.672Zm5.934,6.9H26.749A3.068,3.068,0,0,1,23.759-2a3.486,3.486,0,0,1-3.611-3.358h9.683a8.088,8.088,0,0,0,.092-1.288,5.91,5.91,0,0,0-6.164-6.233c-3.749,0-6.325,2.553-6.325,6.532S20.125.207,23.759.207A5.791,5.791,0,0,0,29.578-3.772Zm3.335.253C32.913-.943,34.316,0,36.57,0h2.07V-2.185H37.03c-1.1,0-1.472-.391-1.472-1.334v-7.015H38.64v-2.139H35.558v-3.151H32.913v3.151h-1.5v2.139h1.5ZM43.516,0h2.76l2.553-9.361L51.382,0h2.76l3.933-12.673H55.5L52.877-2.53,50.3-12.673H47.564L44.873-2.484,42.228-12.673H39.56ZM72.105-6.348a6.25,6.25,0,0,0-6.463-6.532,6.25,6.25,0,0,0-6.463,6.532A6.179,6.179,0,0,0,65.527.207,6.348,6.348,0,0,0,72.105-6.348Zm-10.258,0c0-2.875,1.771-4.255,3.749-4.255,1.955,0,3.818,1.38,3.818,4.255S67.482-2.07,65.527-2.07C63.549-2.07,61.847-3.473,61.847-6.348ZM77.326-6.67c0-2.691,1.2-3.5,3.128-3.5h.667V-12.88a4.128,4.128,0,0,0-3.795,2.047v-1.84H74.7V0h2.622ZM83.536,0h2.622V-5.451L90.85,0h3.542L88.55-6.325l5.842-6.348H90.758l-4.6,5.543v-9.89H83.536ZM96.278,0H98.9V-12.673H96.278Zm1.334-14.352a1.654,1.654,0,0,0,1.656-1.679,1.654,1.654,0,0,0-1.656-1.679,1.659,1.659,0,0,0-1.679,1.679A1.659,1.659,0,0,0,97.612-14.352ZM111.343,0h2.6V-7.475c0-3.542-2.231-5.405-5.2-5.405a4.875,4.875,0,0,0-3.772,1.656v-1.449H102.35V0h2.622V-7.084c0-2.323,1.265-3.519,3.2-3.519,1.909,0,3.174,1.2,3.174,3.519Zm5.06-6.394c0,3.91,2.645,6.6,5.98,6.6a5.44,5.44,0,0,0,4.393-2.116V.207c0,2.53-1.518,3.772-3.542,3.772a3.533,3.533,0,0,1-3.611-2.208h-2.6c.322,2.806,2.829,4.485,6.21,4.485,3.956,0,6.187-2.6,6.187-6.049v-12.88h-2.645v1.84a5.368,5.368,0,0,0-4.393-2.047C119.048-12.88,116.4-10.3,116.4-6.394Zm10.373.046a3.937,3.937,0,0,1-3.841,4.278,3.993,3.993,0,0,1-3.841-4.324,3.888,3.888,0,0,1,3.841-4.209A3.93,3.93,0,0,1,126.776-6.348Z" transform="translate(-9328 2042)" fill="#1b2032"/>
    <path id="Path_593" data-name="Path 593" d="M12.512-4.531c0-5.842-8.464-3.588-8.464-7.2,0-1.541,1.173-2.277,2.691-2.231A2.5,2.5,0,0,1,9.43-11.845h2.9c-.23-2.737-2.392-4.347-5.451-4.347-3.266,0-5.5,1.748-5.5,4.554,0,5.888,8.487,3.381,8.487,7.245,0,1.357-1.035,2.346-2.875,2.346A2.565,2.565,0,0,1,4.14-4.416H1.334C1.334-1.587,3.8.161,6.992.161,10.557.161,12.512-2.139,12.512-4.531Zm3.519,1.012C16.031-.943,17.434,0,19.688,0h2.07V-2.185h-1.61c-1.1,0-1.472-.391-1.472-1.334v-7.015h3.082v-2.139H18.676v-3.151H16.031v3.151H14.536v2.139h1.495ZM36.248-6.348a6.25,6.25,0,0,0-6.463-6.532,6.25,6.25,0,0,0-6.463,6.532A6.179,6.179,0,0,0,29.67.207,6.348,6.348,0,0,0,36.248-6.348Zm-10.258,0c0-2.875,1.771-4.255,3.749-4.255,1.955,0,3.818,1.38,3.818,4.255S31.625-2.07,29.67-2.07C27.692-2.07,25.99-3.473,25.99-6.348ZM41.469-6.67c0-2.691,1.2-3.5,3.128-3.5h.667V-12.88a4.128,4.128,0,0,0-3.795,2.047v-1.84H38.847V0h2.622Zm5.336.276c0,3.91,2.645,6.6,5.934,6.6a5.455,5.455,0,0,0,4.439-2.093V0h2.645V-12.673H57.178v1.84a5.394,5.394,0,0,0-4.393-2.047C49.45-12.88,46.805-10.3,46.805-6.394Zm10.373.046A3.937,3.937,0,0,1,53.337-2.07,3.993,3.993,0,0,1,49.5-6.394,3.888,3.888,0,0,1,53.337-10.6,3.93,3.93,0,0,1,57.178-6.348ZM62.4-6.394c0,3.91,2.645,6.6,5.98,6.6a5.44,5.44,0,0,0,4.393-2.116V.207c0,2.53-1.518,3.772-3.542,3.772a3.533,3.533,0,0,1-3.611-2.208h-2.6c.322,2.806,2.829,4.485,6.21,4.485,3.956,0,6.187-2.6,6.187-6.049v-12.88H72.772v1.84a5.368,5.368,0,0,0-4.393-2.047C65.044-12.88,62.4-10.3,62.4-6.394Zm10.373.046A3.937,3.937,0,0,1,68.931-2.07,3.993,3.993,0,0,1,65.09-6.394,3.888,3.888,0,0,1,68.931-10.6,3.93,3.93,0,0,1,72.772-6.348ZM84.2-10.672a3.291,3.291,0,0,1,3.542,3.2H80.73A3.452,3.452,0,0,1,84.2-10.672Zm5.934,6.9H87.308A3.068,3.068,0,0,1,84.318-2a3.486,3.486,0,0,1-3.611-3.358H90.39a8.088,8.088,0,0,0,.092-1.288,5.91,5.91,0,0,0-6.164-6.233c-3.749,0-6.325,2.553-6.325,6.532S80.684.207,84.318.207A5.791,5.791,0,0,0,90.137-3.772Z" transform="translate(-9835 2042)" fill="#1b2032"/>
    <path id="Path_594" data-name="Path 594" d="M7.981-2.691,3.243-15.985H.437L6.463,0H9.5l6-15.985h-2.76ZM17.687,0h2.622V-12.673H17.687Zm1.334-14.352a1.654,1.654,0,0,0,1.656-1.679,1.654,1.654,0,0,0-1.656-1.679,1.659,1.659,0,0,0-1.679,1.679A1.659,1.659,0,0,0,19.021-14.352Zm7.36,7.682c0-2.691,1.2-3.5,3.128-3.5h.667V-12.88a4.128,4.128,0,0,0-3.8,2.047v-1.84H23.759V0h2.622ZM33-3.519C33-.943,34.408,0,36.662,0h2.07V-2.185h-1.61c-1.1,0-1.472-.391-1.472-1.334v-7.015h3.082v-2.139H35.65v-3.151H33v3.151H31.51v2.139H33Zm19.619-9.154H50v7.061c0,2.323-1.265,3.519-3.2,3.519-1.909,0-3.174-1.2-3.174-3.519v-7.061h-2.6v7.452c0,3.542,2.254,5.4,5.221,5.4A4.717,4.717,0,0,0,50-1.518V0h2.622ZM55.2-6.394c0,3.91,2.645,6.6,5.934,6.6a5.455,5.455,0,0,0,4.439-2.093V0h2.645V-12.673H65.573v1.84A5.394,5.394,0,0,0,61.18-12.88C57.845-12.88,55.2-10.3,55.2-6.394Zm10.373.046A3.937,3.937,0,0,1,61.732-2.07a3.993,3.993,0,0,1-3.841-4.324A3.888,3.888,0,0,1,61.732-10.6,3.93,3.93,0,0,1,65.573-6.348ZM71.668,0H74.29V-17.02H71.668ZM1.725,31H4.347V20.052L9.246,31h1.817l4.876-10.948V31h2.622V15.015H15.755L10.166,27.55,4.554,15.015H1.725Zm19.412-6.394c0,3.91,2.645,6.6,5.934,6.6a5.455,5.455,0,0,0,4.439-2.093V31h2.645V18.327H31.51v1.84a5.394,5.394,0,0,0-4.393-2.047C23.782,18.12,21.137,20.7,21.137,24.606Zm10.373.046a3.937,3.937,0,0,1-3.841,4.278,3.993,3.993,0,0,1-3.841-4.324A3.888,3.888,0,0,1,27.669,20.4,3.93,3.93,0,0,1,31.51,24.652Zm5.221,0c0,3.979,2.576,6.555,6.21,6.555A5.692,5.692,0,0,0,48.783,27H45.954a2.894,2.894,0,0,1-3.013,2c-2.116,0-3.519-1.564-3.519-4.347,0-2.76,1.4-4.324,3.519-4.324a2.962,2.962,0,0,1,3.013,2h2.829c-.713-2.668-2.737-4.209-5.842-4.209C39.307,18.12,36.731,20.7,36.731,24.652ZM51.4,31h2.622V23.916c0-2.323,1.265-3.519,3.2-3.519,1.909,0,3.174,1.2,3.174,3.519V31H63V23.525c0-3.542-2.208-5.405-5.037-5.405A5.024,5.024,0,0,0,54.027,19.8V13.98H51.4Zm14.927,0h2.622V18.327H66.332Zm1.334-14.352a1.679,1.679,0,1,0-1.679-1.679A1.654,1.654,0,0,0,67.666,16.648ZM81.4,31H84V23.525c0-3.542-2.231-5.405-5.2-5.405a4.875,4.875,0,0,0-3.772,1.656V18.327H72.4V31h2.622V23.916c0-2.323,1.265-3.519,3.2-3.519,1.909,0,3.174,1.2,3.174,3.519Zm11.27-10.672a3.291,3.291,0,0,1,3.542,3.2H89.194A3.452,3.452,0,0,1,92.667,20.328Zm5.934,6.9H95.772A3.068,3.068,0,0,1,92.782,29a3.486,3.486,0,0,1-3.611-3.358h9.683a8.088,8.088,0,0,0,.092-1.288,5.91,5.91,0,0,0-6.164-6.233c-3.749,0-6.325,2.553-6.325,6.532s2.691,6.555,6.325,6.555A5.791,5.791,0,0,0,98.6,27.228Zm12.374.23c-.138-4.577-7.291-3.151-7.291-5.7,0-.851.736-1.426,2.139-1.426a2.1,2.1,0,0,1,2.369,1.863h2.622c-.138-2.53-2.024-4.071-4.9-4.071-2.99,0-4.876,1.633-4.876,3.657,0,4.646,7.36,3.22,7.36,5.7,0,.874-.805,1.518-2.323,1.518a2.312,2.312,0,0,1-2.53-1.886h-2.714c.115,2.3,2.254,4.094,5.29,4.094C109.112,31.207,110.975,29.6,110.975,27.458Z" transform="translate(-9336 1383)" fill="#1b2032"/>
    <path id="Path_595" data-name="Path 595" d="M10.212-11.2c0,1.587-.92,2.714-2.967,2.714h-2.9v-5.359h2.9C9.292-13.846,10.212-12.811,10.212-11.2ZM1.725-15.985V0H4.347V-6.394h2L10.028,0h3.128L9.2-6.624A4.55,4.55,0,0,0,12.9-11.2c0-2.6-1.863-4.784-5.658-4.784ZM21.6-10.672a3.291,3.291,0,0,1,3.542,3.2H18.124A3.452,3.452,0,0,1,21.6-10.672Zm5.934,6.9H24.7A3.068,3.068,0,0,1,21.712-2,3.486,3.486,0,0,1,18.1-5.359h9.683a8.088,8.088,0,0,0,.092-1.288,5.91,5.91,0,0,0-6.164-6.233c-3.749,0-6.325,2.553-6.325,6.532S18.078.207,21.712.207A5.791,5.791,0,0,0,27.531-3.772Zm2.047-2.576c0,3.979,2.576,6.555,6.21,6.555A5.692,5.692,0,0,0,41.63-4H38.8a2.894,2.894,0,0,1-3.013,2c-2.116,0-3.519-1.564-3.519-4.347,0-2.76,1.4-4.324,3.519-4.324a2.962,2.962,0,0,1,3.013,2H41.63c-.713-2.668-2.737-4.209-5.842-4.209C32.154-12.88,29.578-10.3,29.578-6.348Zm26.749,0a6.25,6.25,0,0,0-6.463-6.532A6.25,6.25,0,0,0,43.4-6.348,6.179,6.179,0,0,0,49.749.207,6.348,6.348,0,0,0,56.327-6.348Zm-10.258,0c0-2.875,1.771-4.255,3.749-4.255,1.955,0,3.818,1.38,3.818,4.255S51.7-2.07,49.749-2.07C47.771-2.07,46.069-3.473,46.069-6.348ZM76.889,0h2.6V-7.475c0-3.542-2.254-5.405-5.221-5.405a4.962,4.962,0,0,0-4.416,2.507A4.888,4.888,0,0,0,65.3-12.88a4.826,4.826,0,0,0-3.749,1.656v-1.449H58.926V0h2.622V-7.084c0-2.323,1.265-3.519,3.2-3.519,1.909,0,3.174,1.2,3.174,3.519V0h2.6V-7.084c0-2.323,1.265-3.519,3.2-3.519,1.909,0,3.174,1.2,3.174,3.519Zm23.9,0h2.6V-7.475c0-3.542-2.254-5.405-5.221-5.405a4.962,4.962,0,0,0-4.416,2.507,4.888,4.888,0,0,0-4.554-2.507,4.826,4.826,0,0,0-3.749,1.656v-1.449H82.823V0h2.622V-7.084c0-2.323,1.265-3.519,3.2-3.519,1.909,0,3.174,1.2,3.174,3.519V0h2.6V-7.084c0-2.323,1.265-3.519,3.2-3.519,1.909,0,3.174,1.2,3.174,3.519Zm11.27-10.672a3.291,3.291,0,0,1,3.542,3.2h-7.015A3.452,3.452,0,0,1,112.056-10.672Zm5.934,6.9h-2.829A3.068,3.068,0,0,1,112.171-2a3.486,3.486,0,0,1-3.611-3.358h9.683a8.088,8.088,0,0,0,.092-1.288,5.91,5.91,0,0,0-6.164-6.233c-3.749,0-6.325,2.553-6.325,6.532S108.537.207,112.171.207A5.791,5.791,0,0,0,117.99-3.772ZM129.9,0h2.6V-7.475c0-3.542-2.231-5.405-5.2-5.405a4.875,4.875,0,0,0-3.772,1.656v-1.449h-2.622V0h2.622V-7.084c0-2.323,1.265-3.519,3.2-3.519,1.909,0,3.174,1.2,3.174,3.519Zm5.06-6.394c0,3.91,2.645,6.6,5.98,6.6a5.254,5.254,0,0,0,4.393-2.116V0h2.645V-17.02h-2.645V-10.9a5.837,5.837,0,0,0-4.37-1.978C137.609-12.88,134.964-10.3,134.964-6.394Zm10.373.046A3.937,3.937,0,0,1,141.5-2.07a3.993,3.993,0,0,1-3.841-4.324A3.888,3.888,0,0,1,141.5-10.6,3.93,3.93,0,0,1,145.337-6.348Zm5.221-.046c0,3.91,2.645,6.6,5.934,6.6a5.455,5.455,0,0,0,4.439-2.093V0h2.645V-12.673h-2.645v1.84a5.394,5.394,0,0,0-4.393-2.047C153.2-12.88,150.558-10.3,150.558-6.394Zm10.373.046A3.937,3.937,0,0,1,157.09-2.07a3.993,3.993,0,0,1-3.841-4.324A3.888,3.888,0,0,1,157.09-10.6,3.93,3.93,0,0,1,160.931-6.348Zm6.509,2.829C167.44-.943,168.843,0,171.1,0h2.07V-2.185h-1.61c-1.1,0-1.472-.391-1.472-1.334v-7.015h3.082v-2.139h-3.082v-3.151H167.44v3.151h-1.5v2.139h1.5ZM175.582,0H178.2V-12.673h-2.622Zm1.334-14.352a1.654,1.654,0,0,0,1.656-1.679,1.654,1.654,0,0,0-1.656-1.679,1.659,1.659,0,0,0-1.679,1.679A1.659,1.659,0,0,0,176.916-14.352Zm16.813,8a6.25,6.25,0,0,0-6.463-6.532A6.25,6.25,0,0,0,180.8-6.348,6.179,6.179,0,0,0,187.151.207,6.348,6.348,0,0,0,193.729-6.348Zm-10.258,0c0-2.875,1.771-4.255,3.749-4.255,1.955,0,3.818,1.38,3.818,4.255s-1.932,4.278-3.887,4.278C185.173-2.07,183.471-3.473,183.471-6.348ZM205.321,0h2.6V-7.475c0-3.542-2.231-5.405-5.2-5.405a4.875,4.875,0,0,0-3.772,1.656v-1.449h-2.622V0h2.622V-7.084c0-2.323,1.265-3.519,3.2-3.519,1.909,0,3.174,1.2,3.174,3.519Zm15.387-3.542c-.138-4.577-7.291-3.151-7.291-5.7,0-.851.736-1.426,2.139-1.426a2.1,2.1,0,0,1,2.369,1.863h2.622c-.138-2.53-2.024-4.071-4.9-4.071-2.99,0-4.876,1.633-4.876,3.657,0,4.646,7.36,3.22,7.36,5.7,0,.874-.805,1.518-2.323,1.518a2.312,2.312,0,0,1-2.53-1.886h-2.714c.115,2.3,2.254,4.094,5.29,4.094C218.845.207,220.708-1.4,220.708-3.542Z" transform="translate(-9831 1718)" fill="#1b2032"/>
    <path id="Path_576" data-name="Path 576" d="M5.67-11.25v-6.81H9.45c2.67,0,3.87,1.26,3.87,3.42,0,2.1-1.2,3.39-3.87,3.39Zm11.16-3.39c0-3.39-2.43-6.21-7.38-6.21H2.25V0H5.67V-8.46H9.45C14.88-8.46,16.83-11.67,16.83-14.64ZM35.85-8.28a8.152,8.152,0,0,0-8.43-8.52,8.152,8.152,0,0,0-8.43,8.52c0,5.19,3.57,8.55,8.28,8.55A8.28,8.28,0,0,0,35.85-8.28Zm-13.38,0c0-3.75,2.31-5.55,4.89-5.55,2.55,0,4.98,1.8,4.98,5.55S29.82-2.7,27.27-2.7C24.69-2.7,22.47-4.53,22.47-8.28ZM39.78-4.59C39.78-1.23,41.61,0,44.55,0h2.7V-2.85h-2.1c-1.44,0-1.92-.51-1.92-1.74v-9.15h4.02v-2.79H43.23v-4.11H39.78v4.11H37.83v2.79h1.95Zm17.58-9.33a4.292,4.292,0,0,1,4.62,4.17H52.83A4.5,4.5,0,0,1,57.36-13.92Zm7.74,9H61.41a4,4,0,0,1-3.9,2.31A4.547,4.547,0,0,1,52.8-6.99H65.43a10.55,10.55,0,0,0,.12-1.68,7.709,7.709,0,0,0-8.04-8.13c-4.89,0-8.25,3.33-8.25,8.52S52.77.27,57.51.27A7.553,7.553,0,0,0,65.1-4.92ZM80.64,0h3.39V-9.75c0-4.62-2.91-7.05-6.78-7.05a6.359,6.359,0,0,0-4.92,2.16v-1.89H68.91V0h3.42V-9.24c0-3.03,1.65-4.59,4.17-4.59,2.49,0,4.14,1.56,4.14,4.59Zm8.28-4.59C88.92-1.23,90.75,0,93.69,0h2.7V-2.85h-2.1c-1.44,0-1.92-.51-1.92-1.74v-9.15h4.02v-2.79H92.37v-4.11H88.92v4.11H86.97v2.79h1.95ZM99.54,0h3.42V-16.53H99.54Zm1.74-18.72a2.158,2.158,0,0,0,2.16-2.19,2.158,2.158,0,0,0-2.16-2.19,2.164,2.164,0,0,0-2.19,2.19A2.164,2.164,0,0,0,101.28-18.72Zm5.04,10.38c0,5.1,3.45,8.61,7.74,8.61a7.115,7.115,0,0,0,5.79-2.73V0h3.45V-16.53h-3.45v2.4a7.036,7.036,0,0,0-5.73-2.67C109.77-16.8,106.32-13.44,106.32-8.34Zm13.53.06c0,3.57-2.43,5.58-5.01,5.58-2.55,0-5.01-2.07-5.01-5.64s2.46-5.49,5.01-5.49C117.42-13.83,119.85-11.82,119.85-8.28ZM127.8,0h3.42V-22.2H127.8Zm29.79,0h3.6l-7.47-20.88h-3.96L142.29,0h3.57l1.5-4.26h8.73Zm-2.46-7.05h-6.81l3.42-9.69ZM176.16,0h3.39V-9.75c0-4.62-2.91-7.05-6.78-7.05a6.359,6.359,0,0,0-4.92,2.16v-1.89h-3.42V0h3.42V-9.24c0-3.03,1.65-4.59,4.17-4.59,2.49,0,4.14,1.56,4.14,4.59Zm19.47,0h3.39V-9.75c0-4.62-2.91-7.05-6.78-7.05a6.359,6.359,0,0,0-4.92,2.16v-1.89H183.9V0h3.42V-9.24c0-3.03,1.65-4.59,4.17-4.59,2.49,0,4.14,1.56,4.14,4.59Zm22.71-16.53h-3.42v9.21c0,3.03-1.65,4.59-4.17,4.59-2.49,0-4.14-1.56-4.14-4.59v-9.21h-3.39v9.72c0,4.62,2.94,7.05,6.81,7.05a6.153,6.153,0,0,0,4.89-2.22V0h3.42Zm3.36,8.19c0,5.1,3.45,8.61,7.74,8.61a7.115,7.115,0,0,0,5.79-2.73V0h3.45V-16.53h-3.45v2.4a7.036,7.036,0,0,0-5.73-2.67C225.15-16.8,221.7-13.44,221.7-8.34Zm13.53.06c0,3.57-2.43,5.58-5.01,5.58-2.55,0-5.01-2.07-5.01-5.64s2.46-5.49,5.01-5.49C232.8-13.83,235.23-11.82,235.23-8.28ZM243.18,0h3.42V-22.2h-3.42ZM16.32,30.09c0-7.62-11.04-4.68-11.04-9.39,0-2.01,1.53-2.97,3.51-2.91,2.16.06,3.39,1.35,3.51,2.76h3.78c-.3-3.57-3.12-5.67-7.11-5.67-4.26,0-7.17,2.28-7.17,5.94,0,7.68,11.07,4.41,11.07,9.45,0,1.77-1.35,3.06-3.75,3.06-2.37,0-3.57-1.38-3.72-3.09H1.74c0,3.69,3.21,5.97,7.38,5.97C13.77,36.21,16.32,33.21,16.32,30.09Zm2.91-2.43c0,5.1,3.45,8.61,7.74,8.61a7.115,7.115,0,0,0,5.79-2.73V36h3.45V19.47H32.76v2.4a7.036,7.036,0,0,0-5.73-2.67C22.68,19.2,19.23,22.56,19.23,27.66Zm13.53.06c0,3.57-2.43,5.58-5.01,5.58-2.55,0-5.01-2.07-5.01-5.64s2.46-5.49,5.01-5.49C30.33,22.17,32.76,24.18,32.76,27.72Zm6-8.25L45.03,36h4.08l6.3-16.53H51.78L47.1,32.94,42.42,19.47ZM57.99,36h3.42V19.47H57.99Zm1.74-18.72a2.19,2.19,0,1,0-2.19-2.19A2.158,2.158,0,0,0,59.73,17.28ZM77.64,36h3.39V26.25c0-4.62-2.91-7.05-6.78-7.05a6.359,6.359,0,0,0-4.92,2.16V19.47H65.91V36h3.42V26.76c0-3.03,1.65-4.59,4.17-4.59,2.49,0,4.14,1.56,4.14,4.59Zm6.6-8.34c0,5.1,3.45,8.61,7.8,8.61a7.1,7.1,0,0,0,5.73-2.76v2.76c0,3.3-1.98,4.92-4.62,4.92-2.37,0-4.2-1.17-4.71-2.88H85.05c.42,3.66,3.69,5.85,8.1,5.85,5.16,0,8.07-3.39,8.07-7.89V19.47H97.77v2.4a7,7,0,0,0-5.73-2.67C87.69,19.2,84.24,22.56,84.24,27.66Zm13.53.06c0,3.57-2.43,5.58-5.01,5.58-2.55,0-5.01-2.07-5.01-5.64s2.46-5.49,5.01-5.49C95.34,22.17,97.77,24.18,97.77,27.72Zm20.28,3.66c-.18-5.97-9.51-4.11-9.51-7.44,0-1.11.96-1.86,2.79-1.86,1.86,0,2.97.99,3.09,2.43h3.42c-.18-3.3-2.64-5.31-6.39-5.31-3.9,0-6.36,2.13-6.36,4.77,0,6.06,9.6,4.2,9.6,7.44,0,1.14-1.05,1.98-3.03,1.98-1.89,0-3.18-1.11-3.3-2.46h-3.54c.15,3,2.94,5.34,6.9,5.34C115.62,36.27,118.05,34.17,118.05,31.38Z" transform="translate(-9328 1707)" fill="#1b2032"/>
    <path id="Path_596" data-name="Path 596" d="M5.359-13.915V-9.8h-4v3.519h4v4.094H9.085V-6.279h4V-9.8h-4v-4.117ZM17.342,0h4.094V-16.79H15.065v3.657h2.277ZM23.8-12.558a3.6,3.6,0,0,0,3.841,3.887,3.58,3.58,0,0,0,3.818-3.887,3.58,3.58,0,0,0-3.818-3.887A3.6,3.6,0,0,0,23.8-12.558Zm3.818-1.587c.69,0,1.127.483,1.127,1.587,0,1.081-.437,1.564-1.127,1.564s-1.1-.483-1.1-1.564C26.519-13.662,26.933-14.145,27.623-14.145ZM26.772,0h3.8l8.855-16.192H35.627Zm7.981-3.634A3.58,3.58,0,0,0,38.571.253a3.58,3.58,0,0,0,3.818-3.887,3.569,3.569,0,0,0-3.818-3.887A3.569,3.569,0,0,0,34.753-3.634Zm3.795-1.587c.69,0,1.127.506,1.127,1.587S39.238-2.07,38.548-2.07s-1.1-.483-1.1-1.564S37.858-5.221,38.548-5.221Z" transform="translate(-9608 1080)" fill="#92cb29"/>
    <path id="Path_597" data-name="Path 597" d="M-47.725-6.44H-37.6V-9.706h-10.12Zm21,6.44h3.933V-2.99h1.886v-3.4h-1.886V-16.56h-4.393l-7.268,10.4V-2.99h7.728Zm-3.588-6.394,3.864-5.842v5.842ZM-19.3-12.558a3.6,3.6,0,0,0,3.841,3.887,3.58,3.58,0,0,0,3.818-3.887,3.58,3.58,0,0,0-3.818-3.887A3.6,3.6,0,0,0-19.3-12.558Zm3.818-1.587c.69,0,1.127.483,1.127,1.587,0,1.081-.437,1.564-1.127,1.564s-1.1-.483-1.1-1.564C-16.583-13.662-16.169-14.145-15.479-14.145ZM-16.33,0h3.8L-3.68-16.192H-7.475Zm7.981-3.634A3.58,3.58,0,0,0-4.531.253,3.58,3.58,0,0,0-.713-3.634,3.569,3.569,0,0,0-4.531-7.521,3.569,3.569,0,0,0-8.349-3.634Zm3.795-1.587c.69,0,1.127.506,1.127,1.587S-3.864-2.07-4.554-2.07s-1.1-.483-1.1-1.564S-5.244-5.221-4.554-5.221Z" transform="translate(-9567 1403)" fill="#cb3c29"/>
    <path id="Path_598" data-name="Path 598" d="M-33.971-8.625c0,4.968,1.679,8.556,6.463,8.556s6.463-3.588,6.463-8.556c0-4.922-1.679-8.51-6.463-8.51S-33.971-13.547-33.971-8.625Zm9.062,0c0,2.668-.276,4.876-2.6,4.876s-2.6-2.208-2.6-4.876c0-2.576.276-4.83,2.6-4.83S-24.909-11.2-24.909-8.625Zm5.612-3.933a3.6,3.6,0,0,0,3.841,3.887,3.58,3.58,0,0,0,3.818-3.887,3.58,3.58,0,0,0-3.818-3.887A3.6,3.6,0,0,0-19.3-12.558Zm3.818-1.587c.69,0,1.127.483,1.127,1.587,0,1.081-.437,1.564-1.127,1.564s-1.1-.483-1.1-1.564C-16.583-13.662-16.169-14.145-15.479-14.145ZM-16.33,0h3.8L-3.68-16.192H-7.475Zm7.981-3.634A3.58,3.58,0,0,0-4.531.253,3.58,3.58,0,0,0-.713-3.634,3.569,3.569,0,0,0-4.531-7.521,3.569,3.569,0,0,0-8.349-3.634Zm3.795-1.587c.69,0,1.127.506,1.127,1.587S-3.864-2.07-4.554-2.07s-1.1-.483-1.1-1.564S-5.244-5.221-4.554-5.221Z" transform="translate(-9062 1080)" fill="rgba(27,32,50,0.2)"/>
    <path id="Path_573" data-name="Path 573" d="M-32.2,0h4.094V-16.79h-6.371v3.657H-32.2Zm7.383-4.922A5.211,5.211,0,0,0-19.205.069c4.508,0,5.842-3.174,5.842-8.9,0-5.106-1.334-8.349-6.118-8.349-3.565,0-5.773,2.208-5.773,5.612,0,3.565,2.208,5.359,5.083,5.359a4.008,4.008,0,0,0,3.335-1.5c0,3.2-.575,4.6-2.231,4.6a1.978,1.978,0,0,1-2.116-1.817Zm5.543-4.393a2.061,2.061,0,0,1-2.277-2.208A2.067,2.067,0,0,1-19.366-13.8a2.069,2.069,0,0,1,2.208,2.3A2,2,0,0,1-19.274-9.315Zm7.613-7.452v3.358h7.153L-10.35,0h4.025L-.552-13.846v-2.921Z" transform="translate(-9062 2177)" fill="rgba(27,32,50,0.2)"/>
    <path id="Path_599" data-name="Path 599" d="M-42.435,0h4.094V-16.79h-6.371v3.657h2.277Zm8.648,0h4.094V-16.79h-6.371v3.657h2.277Zm9.545-9.016A4.3,4.3,0,0,0-26.8-4.922c0,3.358,2.783,5.244,6.21,5.244s6.21-1.886,6.21-5.244a4.305,4.305,0,0,0-2.576-4.094,3.924,3.924,0,0,0,2.162-3.611c0-2.392-1.84-4.508-5.8-4.508S-26.4-15.019-26.4-12.627A3.861,3.861,0,0,0-24.242-9.016Zm3.657-1.058a1.847,1.847,0,0,1-1.978-1.932,1.842,1.842,0,0,1,1.978-2,1.836,1.836,0,0,1,1.978,1.978A1.865,1.865,0,0,1-20.585-10.074Zm0,2.76a2.146,2.146,0,0,1,2.369,2.208A2.171,2.171,0,0,1-20.585-2.9,2.186,2.186,0,0,1-23-5.106,2.16,2.16,0,0,1-20.585-7.314ZM-12.236-.23H-.69v-3.2H-6.9C-4.232-5.474-.943-8.418-.943-12.1c0-2.829-1.7-5.06-5.52-5.06-3.059,0-5.7,1.748-5.819,5.819h3.8c0-1.587.69-2.507,1.863-2.507,1.2,0,1.748.782,1.748,2,0,2.829-3.8,5.75-7.36,8.694Z" transform="translate(-9563 2177)" fill="rgba(27,32,50,0.2)"/>
    <path id="Path_600" data-name="Path 600" d="M-49.45-6.44h10.12V-9.706H-49.45ZM-34.408,0h4.094V-16.79h-6.371v3.657h2.277Zm8.648,0h4.094V-16.79h-6.371v3.657h2.277ZM-19.3-12.558a3.6,3.6,0,0,0,3.841,3.887,3.58,3.58,0,0,0,3.818-3.887,3.58,3.58,0,0,0-3.818-3.887A3.6,3.6,0,0,0-19.3-12.558Zm3.818-1.587c.69,0,1.127.483,1.127,1.587,0,1.081-.437,1.564-1.127,1.564s-1.1-.483-1.1-1.564C-16.583-13.662-16.169-14.145-15.479-14.145ZM-16.33,0h3.8L-3.68-16.192H-7.475Zm7.981-3.634A3.58,3.58,0,0,0-4.531.253,3.58,3.58,0,0,0-.713-3.634,3.569,3.569,0,0,0-4.531-7.521,3.569,3.569,0,0,0-8.349-3.634Zm3.795-1.587c.69,0,1.127.506,1.127,1.587S-3.864-2.07-4.554-2.07s-1.1-.483-1.1-1.564S-5.244-5.221-4.554-5.221Z" transform="translate(-9066 1403)" fill="#cb3c29"/>
    <path id="Path_601" data-name="Path 601" d="M-33.971-8.625c0,4.968,1.679,8.556,6.463,8.556s6.463-3.588,6.463-8.556c0-4.922-1.679-8.51-6.463-8.51S-33.971-13.547-33.971-8.625Zm9.062,0c0,2.668-.276,4.876-2.6,4.876s-2.6-2.208-2.6-4.876c0-2.576.276-4.83,2.6-4.83S-24.909-11.2-24.909-8.625Zm5.612-3.933a3.6,3.6,0,0,0,3.841,3.887,3.58,3.58,0,0,0,3.818-3.887,3.58,3.58,0,0,0-3.818-3.887A3.6,3.6,0,0,0-19.3-12.558Zm3.818-1.587c.69,0,1.127.483,1.127,1.587,0,1.081-.437,1.564-1.127,1.564s-1.1-.483-1.1-1.564C-16.583-13.662-16.169-14.145-15.479-14.145ZM-16.33,0h3.8L-3.68-16.192H-7.475Zm7.981-3.634A3.58,3.58,0,0,0-4.531.253,3.58,3.58,0,0,0-.713-3.634,3.569,3.569,0,0,0-4.531-7.521,3.569,3.569,0,0,0-8.349-3.634Zm3.795-1.587c.69,0,1.127.506,1.127,1.587S-3.864-2.07-4.554-2.07s-1.1-.483-1.1-1.564S-5.244-5.221-4.554-5.221Z" transform="translate(-9561 2042)" fill="#c9cace"/>
    <path id="Path_577" data-name="Path 577" d="M-43.746-13.915V-9.8h-4v3.519h4v4.094h3.726V-6.279h4V-9.8h-4v-4.117Zm22.08,1.656a5.054,5.054,0,0,0-5.428-4.876c-4.347,0-6.141,2.875-6.141,8.625,0,5.014,1.242,8.6,6.3,8.6,3.611,0,5.727-2.3,5.727-5.635,0-3.5-2.07-5.405-4.991-5.405a4.1,4.1,0,0,0-3.565,1.725c.023-3.243.713-4.738,2.484-4.738a1.815,1.815,0,0,1,1.955,1.7ZM-27.14-7.843A2.082,2.082,0,0,1-24.909-5.52a2.067,2.067,0,0,1-2.185,2.277A2.142,2.142,0,0,1-29.44-5.589,2.134,2.134,0,0,1-27.14-7.843Zm7.843-4.715a3.6,3.6,0,0,0,3.841,3.887,3.58,3.58,0,0,0,3.818-3.887,3.58,3.58,0,0,0-3.818-3.887A3.6,3.6,0,0,0-19.3-12.558Zm3.818-1.587c.69,0,1.127.483,1.127,1.587,0,1.081-.437,1.564-1.127,1.564s-1.1-.483-1.1-1.564C-16.583-13.662-16.169-14.145-15.479-14.145ZM-16.33,0h3.8L-3.68-16.192H-7.475Zm7.981-3.634A3.58,3.58,0,0,0-4.531.253,3.58,3.58,0,0,0-.713-3.634,3.569,3.569,0,0,0-4.531-7.521,3.569,3.569,0,0,0-8.349-3.634Zm3.795-1.587c.69,0,1.127.506,1.127,1.587S-3.864-2.07-4.554-2.07s-1.1-.483-1.1-1.564S-5.244-5.221-4.554-5.221Z" transform="translate(-9056 2042)" fill="#92cb29"/>
    <path id="Path_602" data-name="Path 602" d="M4.214-22.661a19.622,19.622,0,0,0,.817,5.375H1.548v4.945H6.235v.086A10.528,10.528,0,0,1,2.322-3.44L3.354.172h21.93V-5.59H10.363A9.063,9.063,0,0,0,13.2-12.212v-.129h6.708v-4.945H12.126a17.166,17.166,0,0,1-.946-4.644c0-2.838,1.376-4.171,3.612-4.171,2.494,0,3.483,1.591,3.569,3.741h6.751c-.215-5.461-3.569-9.761-10.492-9.761C8.514-32.121,4.214-28.638,4.214-22.661ZM31.562-9.2C31.906-4.386,35.217.129,42.054.129c8.428,0,10.922-5.934,10.922-16.641,0-9.546-2.494-15.609-11.438-15.609-6.665,0-10.793,4.128-10.793,10.492,0,6.665,4.128,10.019,9.5,10.019a7.494,7.494,0,0,0,6.235-2.8c0,5.977-1.075,8.6-4.171,8.6-2.279,0-3.526-1.2-3.956-3.4Zm10.363-8.213c-2.881,0-4.257-1.763-4.257-4.128,0-2.623,1.548-4.257,4.085-4.257,2.494,0,4.128,1.505,4.128,4.3A3.739,3.739,0,0,1,41.925-17.415ZM55.771,6.493h4.816L66.048-7.439H58.523ZM69.1-.43H90.687V-6.407H79.077c4.988-3.827,11.137-9.331,11.137-16.211,0-5.289-3.182-9.46-10.32-9.46-5.719,0-10.664,3.268-10.879,10.879H76.11c0-2.967,1.29-4.687,3.483-4.687,2.236,0,3.268,1.462,3.268,3.741,0,5.289-7.1,10.75-13.76,16.254ZM99.072-16.856A8.037,8.037,0,0,0,94.3-9.2c0,6.278,5.2,9.8,11.61,9.8s11.61-3.526,11.61-9.8a8.049,8.049,0,0,0-4.816-7.654,7.336,7.336,0,0,0,4.042-6.751c0-4.472-3.44-8.428-10.836-8.428S95.03-28.079,95.03-23.607A7.218,7.218,0,0,0,99.072-16.856Zm6.837-1.978a3.452,3.452,0,0,1-3.7-3.612,3.445,3.445,0,0,1,3.7-3.741,3.432,3.432,0,0,1,3.7,3.7A3.486,3.486,0,0,1,105.909-18.834Zm0,5.16c2.623,0,4.429,1.548,4.429,4.128,0,2.322-1.634,4.128-4.429,4.128-2.838,0-4.515-1.763-4.515-4.128C101.394-12.212,103.286-13.674,105.909-13.674ZM123.8-31.433v18.7h7.095a3.473,3.473,0,0,1,3.655-2.58c2.623,0,4.042,1.505,4.042,4.343,0,2.709-1.2,4.73-4,4.73a3.716,3.716,0,0,1-3.956-3.1h-7.181C123.711-3.913,127.8,0,134.848,0c6.966,0,10.836-4.3,10.836-10.922,0-5.074-2.623-10.277-9.46-10.277a7.877,7.877,0,0,0-5.762,2.15v-5.934h13.416v-6.45Z" transform="translate(-9919 1212)" fill="#1b2032"/>
    <path id="Path_603" data-name="Path 603" d="M4.214-22.661a19.622,19.622,0,0,0,.817,5.375H1.548v4.945H6.235v.086A10.528,10.528,0,0,1,2.322-3.44L3.354.172h21.93V-5.59H10.363A9.063,9.063,0,0,0,13.2-12.212v-.129h6.708v-4.945H12.126a17.166,17.166,0,0,1-.946-4.644c0-2.838,1.376-4.171,3.612-4.171,2.494,0,3.483,1.591,3.569,3.741h6.751c-.215-5.461-3.569-9.761-10.492-9.761C8.514-32.121,4.214-28.638,4.214-22.661ZM45.064,0h7.353V-5.59h3.526v-6.364H52.417V-30.96H44.2L30.616-11.524V-5.59H45.064ZM38.356-11.954,45.58-22.876v10.922ZM59.3-.43H80.883V-6.407H69.273c4.988-3.827,11.137-9.331,11.137-16.211,0-5.289-3.182-9.46-10.32-9.46-5.719,0-10.664,3.268-10.879,10.879h7.1c0-2.967,1.29-4.687,3.483-4.687,2.236,0,3.268,1.462,3.268,3.741,0,5.289-7.1,10.75-13.76,16.254ZM82.99,6.493h4.816L93.267-7.439H85.742ZM100.061,0h7.654V-31.39H95.8v6.837h4.257Zm14.706-31.433v18.7h7.1a3.473,3.473,0,0,1,3.655-2.58c2.623,0,4.042,1.505,4.042,4.343,0,2.709-1.2,4.73-4,4.73a3.716,3.716,0,0,1-3.956-3.1h-7.181C114.681-3.913,118.766,0,125.818,0c6.966,0,10.836-4.3,10.836-10.922,0-5.074-2.623-10.277-9.46-10.277a7.877,7.877,0,0,0-5.762,2.15v-5.934h13.416v-6.45ZM155.316,0h7.353V-5.59H166.2v-6.364h-3.526V-30.96h-8.213L140.868-11.524V-5.59h14.448Zm-6.708-11.954,7.224-10.922v10.922Z" transform="translate(-9919 1536)" fill="#1b2032"/>
    <path id="Path_604" data-name="Path 604" d="M4.41-23.715a20.535,20.535,0,0,0,.855,5.625H1.62v5.175h4.9v.09A11.018,11.018,0,0,1,2.43-3.6L3.51.18H26.46V-5.85H10.845a9.485,9.485,0,0,0,2.97-6.93v-.135h7.02V-18.09H12.69a17.964,17.964,0,0,1-.99-4.86c0-2.97,1.44-4.365,3.78-4.365,2.61,0,3.645,1.665,3.735,3.915H26.28c-.225-5.715-3.735-10.215-10.98-10.215C8.91-33.615,4.41-29.97,4.41-23.715ZM33.03-9.63C33.39-4.59,36.855.135,44.01.135c8.82,0,11.43-6.21,11.43-17.415,0-9.99-2.61-16.335-11.97-16.335-6.975,0-11.3,4.32-11.3,10.98,0,6.975,4.32,10.485,9.945,10.485a7.843,7.843,0,0,0,6.525-2.925c0,6.255-1.125,9-4.365,9-2.385,0-3.69-1.26-4.14-3.555Zm10.845-8.6c-3.015,0-4.455-1.845-4.455-4.32C39.42-25.29,41.04-27,43.695-27c2.61,0,4.32,1.575,4.32,4.5A3.913,3.913,0,0,1,43.875-18.225Z" transform="translate(-9416 1214)" fill="#1b2032"/>
    <path id="Path_578" data-name="Path 578" d="M4.214-22.661a19.622,19.622,0,0,0,.817,5.375H1.548v4.945H6.235v.086A10.528,10.528,0,0,1,2.322-3.44L3.354.172h21.93V-5.59H10.363A9.063,9.063,0,0,0,13.2-12.212v-.129h6.708v-4.945H12.126a17.166,17.166,0,0,1-.946-4.644c0-2.838,1.376-4.171,3.612-4.171,2.494,0,3.483,1.591,3.569,3.741h6.751c-.215-5.461-3.569-9.761-10.492-9.761C8.514-32.121,4.214-28.638,4.214-22.661ZM33.927,0h7.654V-31.39H29.67v6.837h4.257Zm13.8-9.2C48.074-4.386,51.385.129,58.222.129c8.428,0,10.922-5.934,10.922-16.641,0-9.546-2.494-15.609-11.438-15.609-6.665,0-10.793,4.128-10.793,10.492,0,6.665,4.128,10.019,9.5,10.019a7.494,7.494,0,0,0,6.235-2.8c0,5.977-1.075,8.6-4.171,8.6-2.279,0-3.526-1.2-3.956-3.4Zm10.363-8.213c-2.881,0-4.257-1.763-4.257-4.128,0-2.623,1.548-4.257,4.085-4.257,2.494,0,4.128,1.505,4.128,4.3A3.739,3.739,0,0,1,58.093-17.415Zm15.222-5.117H80.5c.129-1.72.989-3.44,3.354-3.44A2.974,2.974,0,0,1,87.075-22.7c0,2.838-2.408,3.44-4.9,3.44H80.8v5.977h1.376c3.827,0,5.5,1.118,5.5,3.913a3.274,3.274,0,0,1-3.526,3.526c-2.709,0-4.042-1.634-4.085-4.085H72.928C73.143-2.838,77.873.258,84.409.258c6.579,0,10.363-3.784,10.363-9.073,0-4.128-2.15-6.536-5.289-7.568v-.172a7.116,7.116,0,0,0,4.73-7.052c0-4.73-3.569-8.514-10.191-8.514C77.615-32.121,73.573-28.724,73.315-22.532Z" transform="translate(-9408 2174)" fill="#1b2032"/>
    <path id="Path_605" data-name="Path 605" d="M4.312-23.188a20.078,20.078,0,0,0,.836,5.5H1.584v5.06h4.8v.088a10.773,10.773,0,0,1-4,9.02L3.432.176h22.44v-5.9H10.6a9.274,9.274,0,0,0,2.9-6.776v-.132h6.864v-5.06H12.408a17.565,17.565,0,0,1-.968-4.752c0-2.9,1.408-4.268,3.7-4.268,2.552,0,3.564,1.628,3.652,3.828H25.7c-.22-5.588-3.652-9.988-10.736-9.988C8.712-32.868,4.312-29.3,4.312-23.188ZM34.716,0h7.832V-32.12H30.36v7h4.356Zm18.26-17.248a8.223,8.223,0,0,0-4.884,7.832c0,6.424,5.324,10.032,11.88,10.032s11.88-3.608,11.88-10.032a8.236,8.236,0,0,0-4.928-7.832,7.507,7.507,0,0,0,4.136-6.908c0-4.576-3.52-8.624-11.088-8.624S48.84-28.732,48.84-24.156A7.386,7.386,0,0,0,52.976-17.248Zm7-2.024a3.533,3.533,0,0,1-3.784-3.7A3.525,3.525,0,0,1,59.972-26.8a3.512,3.512,0,0,1,3.784,3.784A3.567,3.567,0,0,1,59.972-19.272Zm0,5.28c2.684,0,4.532,1.584,4.532,4.224,0,2.376-1.672,4.224-4.532,4.224-2.9,0-4.62-1.8-4.62-4.224C55.352-12.5,57.288-13.992,59.972-13.992ZM75.064,6.644h4.928L85.58-7.612h-7.7ZM88.968-16.5C88.968-7,92.18-.132,101.332-.132S113.7-7,113.7-16.5c0-9.416-3.212-16.28-12.364-16.28S88.968-25.916,88.968-16.5Zm17.336,0c0,5.1-.528,9.328-4.972,9.328S96.36-11.4,96.36-16.5c0-4.928.528-9.24,4.972-9.24S106.3-21.428,106.3-16.5Zm11.352,0c0,9.5,3.212,16.368,12.364,16.368S142.384-7,142.384-16.5c0-9.416-3.212-16.28-12.364-16.28S117.656-25.916,117.656-16.5Zm17.336,0c0,5.1-.528,9.328-4.972,9.328s-4.972-4.224-4.972-9.328c0-4.928.528-9.24,4.972-9.24S134.992-21.428,134.992-16.5Zm34.232-6.952c-.4-4.752-3.476-9.328-10.384-9.328-8.316,0-11.748,5.5-11.748,16.5,0,9.592,2.376,16.456,12.056,16.456,6.908,0,10.956-4.4,10.956-10.78,0-6.688-3.96-10.34-9.548-10.34a7.851,7.851,0,0,0-6.82,3.3c.044-6.2,1.364-9.064,4.752-9.064,2.244,0,3.3,1.144,3.74,3.256ZM158.752-15c2.816,0,4.268,1.76,4.268,4.444,0,2.728-1.628,4.356-4.18,4.356a4.1,4.1,0,0,1-4.488-4.488A4.082,4.082,0,0,1,158.752-15Z" transform="translate(-9915 2175)" fill="#1b2032"/>
    <path id="Path_606" data-name="Path 606" d="M4.312-23.188a20.078,20.078,0,0,0,.836,5.5H1.584v5.06h4.8v.088a10.773,10.773,0,0,1-4,9.02L3.432.176h22.44v-5.9H10.6a9.274,9.274,0,0,0,2.9-6.776v-.132h6.864v-5.06H12.408a17.565,17.565,0,0,1-.968-4.752c0-2.9,1.408-4.268,3.7-4.268,2.552,0,3.564,1.628,3.652,3.828H25.7c-.22-5.588-3.652-9.988-10.736-9.988C8.712-32.868,4.312-29.3,4.312-23.188Zm49.72-.264c-.4-4.752-3.476-9.328-10.384-9.328-8.316,0-11.748,5.5-11.748,16.5C31.9-6.688,34.276.176,43.956.176c6.908,0,10.956-4.4,10.956-10.78,0-6.688-3.96-10.34-9.548-10.34a7.851,7.851,0,0,0-6.82,3.3c.044-6.2,1.364-9.064,4.752-9.064,2.244,0,3.3,1.144,3.74,3.256ZM43.56-15c2.816,0,4.268,1.76,4.268,4.444,0,2.728-1.628,4.356-4.18,4.356a4.1,4.1,0,0,1-4.488-4.488A4.082,4.082,0,0,1,43.56-15ZM58.036,6.644h4.928L68.552-7.612h-7.7Zm13.156-38.72v6.424H84.876L73.7,0h7.7L92.444-26.488v-5.588ZM95.216-.44H117.3V-6.556h-11.88c5.1-3.916,11.4-9.548,11.4-16.588,0-5.412-3.256-9.68-10.56-9.68-5.852,0-10.912,3.344-11.132,11.132h7.26c0-3.036,1.32-4.8,3.564-4.8,2.288,0,3.344,1.5,3.344,3.828,0,5.412-7.26,11-14.08,16.632ZM135.564,0h7.524V-5.72H146.7v-6.512h-3.608V-31.68h-8.4l-13.9,19.888V-5.72h14.784ZM128.7-12.232l7.392-11.176v11.176Z" transform="translate(-9416 1537)" fill="#1b2032"/>
    <path id="Path_608" data-name="Path 608" d="M5.292,0h7.476V-30.66H1.134v6.678H5.292ZM17.43-.42H38.514V-6.258H27.174C32.046-10,38.052-15.372,38.052-22.092c0-5.166-3.108-9.24-10.08-9.24-5.586,0-10.416,3.192-10.626,10.626h6.93c0-2.9,1.26-4.578,3.4-4.578,2.184,0,3.192,1.428,3.192,3.654,0,5.166-6.93,10.5-13.44,15.876Z" transform="translate(-9911 1850)" fill="#1b2032"/>
    <path id="Path_579" data-name="Path 579" d="M6.86-36.89a31.943,31.943,0,0,0,1.33,8.75H2.52v8.05h7.63v.14c0,6.65-2.1,10.57-6.37,14.35L5.46.28h35.7V-9.1H16.87a14.754,14.754,0,0,0,4.62-10.78v-.21H32.41v-8.05H19.74A27.945,27.945,0,0,1,18.2-35.7c0-4.62,2.24-6.79,5.88-6.79,4.06,0,5.67,2.59,5.81,6.09H40.88c-.35-8.89-5.81-15.89-17.08-15.89C13.86-52.29,6.86-46.62,6.86-36.89ZM55.23,0H67.69V-51.1H48.3v11.13h6.93ZM74.06,10.57H81.9l8.89-22.68H78.54ZM98-14.98C98.56-7.14,103.95.21,115.08.21c13.72,0,17.78-9.66,17.78-27.09,0-15.54-4.06-25.41-18.62-25.41-10.85,0-17.57,6.72-17.57,17.08,0,10.85,6.72,16.31,15.47,16.31,4.34,0,8.12-1.68,10.15-4.55,0,9.73-1.75,14-6.79,14-3.71,0-5.74-1.96-6.44-5.53Zm16.87-13.37c-4.69,0-6.93-2.87-6.93-6.72,0-4.27,2.52-6.93,6.65-6.93,4.06,0,6.72,2.45,6.72,7C121.31-30.87,118.79-28.35,114.87-28.35Zm27.65-22.82v30.45h11.55c.63-2.38,2.59-4.2,5.95-4.2,4.27,0,6.58,2.45,6.58,7.07,0,4.41-1.96,7.7-6.51,7.7-3.92,0-5.95-2.38-6.44-5.04H141.96C142.38-6.37,149.03,0,160.51,0c11.34,0,17.64-7,17.64-17.78,0-8.26-4.27-16.73-15.4-16.73-4.06,0-7.56,1.47-9.38,3.5v-9.66h21.84v-10.5ZM190.4,0h12.46V-51.1H183.47v11.13h6.93Zm18.83,10.57h7.84l8.89-22.68H213.71Zm58.52-47.88c-.63-7.56-5.53-14.84-16.52-14.84-13.23,0-18.69,8.75-18.69,26.25,0,15.26,3.78,26.18,19.18,26.18,10.99,0,17.43-7,17.43-17.15,0-10.64-6.3-16.45-15.19-16.45-4.69,0-8.82,1.96-10.85,5.25.07-9.87,2.17-14.42,7.56-14.42,3.57,0,5.25,1.82,5.95,5.18ZM251.09-23.87c4.48,0,6.79,2.8,6.79,7.07,0,4.34-2.59,6.93-6.65,6.93-4.55,0-7.14-2.66-7.14-7.14C244.09-21.63,247.31-23.87,251.09-23.87Zm61.25-13.44c-.63-7.56-5.53-14.84-16.52-14.84-13.23,0-18.69,8.75-18.69,26.25,0,15.26,3.78,26.18,19.18,26.18,10.99,0,17.43-7,17.43-17.15,0-10.64-6.3-16.45-15.19-16.45-4.69,0-8.82,1.96-10.85,5.25.07-9.87,2.17-14.42,7.56-14.42,3.57,0,5.25,1.82,5.95,5.18ZM295.68-23.87c4.48,0,6.79,2.8,6.79,7.07,0,4.34-2.59,6.93-6.65,6.93-4.55,0-7.14-2.66-7.14-7.14C288.68-21.63,291.9-23.87,295.68-23.87Zm33.25-3.57a13.083,13.083,0,0,0-7.77,12.46c0,10.22,8.47,15.96,18.9,15.96s18.9-5.74,18.9-15.96a13.1,13.1,0,0,0-7.84-12.46,11.942,11.942,0,0,0,6.58-10.99c0-7.28-5.6-13.72-17.64-13.72s-17.71,6.44-17.71,13.72A11.75,11.75,0,0,0,328.93-27.44Zm11.13-3.22c-3.43,0-6.02-2.17-6.02-5.88,0-3.92,2.45-6.09,6.02-6.09s6.02,2.17,6.02,6.02A5.675,5.675,0,0,1,340.06-30.66Zm0,8.4c4.27,0,7.21,2.52,7.21,6.72,0,3.78-2.66,6.72-7.21,6.72-4.62,0-7.35-2.87-7.35-6.72C332.71-19.88,335.79-22.26,340.06-22.26Z" transform="translate(-9409 1866)" fill="#fff"/>
    <g id="noun_database_1472004" transform="translate(-9414.61 1046.323)">
      <path id="Path_168" data-name="Path 168" d="M12189,2813.834v6.79c0,11.107,54.32,11.107,54.32,0v-6.79C12243.32,2802.723,12189,2802.723,12189,2813.834Z" transform="translate(-12189 -2805.5)" fill="#1b2032" fill-rule="evenodd"/>
      <path id="Path_169" data-name="Path 169" d="M12189,31236v10.18c0,11.117,54.32,11.117,54.32,0V31236C12243.32,31247.109,12189,31247.109,12189,31236Z" transform="translate(-12189 -31215.785)" fill="#1b2032" fill-rule="evenodd"/>
      <path id="Path_170" data-name="Path 170" d="M12189,52724v10.188c0,11.109,54.32,11.109,54.32,0V52724C12243.32,52735.109,12189,52735.109,12189,52724Z" transform="translate(-12189 -52688.512)" fill="#1b2032" fill-rule="evenodd"/>
    </g>
    <g id="noun_database_1472004-2" data-name="noun_database_1472004" transform="translate(-9408.41 2006.306)">
      <path id="Path_168-2" data-name="Path 168" d="M12189,2813.834v6.79c0,11.107,54.32,11.107,54.32,0v-6.79C12243.32,2802.723,12189,2802.723,12189,2813.834Z" transform="translate(-12189 -2805.5)" fill="#1b2032" fill-rule="evenodd"/>
      <path id="Path_169-2" data-name="Path 169" d="M12189,31236v10.18c0,11.117,54.32,11.117,54.32,0V31236C12243.32,31247.109,12189,31247.109,12189,31236Z" transform="translate(-12189 -31215.785)" fill="#1b2032" fill-rule="evenodd"/>
      <path id="Path_170-2" data-name="Path 170" d="M12189,52724v10.188c0,11.109,54.32,11.109,54.32,0V52724C12243.32,52735.109,12189,52735.109,12189,52724Z" transform="translate(-12189 -52688.512)" fill="#1b2032" fill-rule="evenodd"/>
    </g>
    <g id="noun_code_4213617" transform="translate(-9910.896 1692.832)">
      <g id="Group_435" data-name="Group 435" transform="translate(0 0)">
        <path id="Path_172" data-name="Path 172" d="M653.715,374.141a2.738,2.738,0,0,1,1.815,3.154l-.084.309L644.5,410.453a2.738,2.738,0,0,1-5.277-1.423l.084-.309,10.95-32.849A2.737,2.737,0,0,1,653.715,374.141Zm-17.838,9.167a2.737,2.737,0,0,1-.286,3.609l-.262.223-8.029,6.022,8.029,6.022a2.738,2.738,0,0,1,.736,3.545l-.189.288a2.738,2.738,0,0,1-3.545.737l-.287-.189-10.95-8.213a2.738,2.738,0,0,1-.272-4.147l.272-.233,10.95-8.212A2.737,2.737,0,0,1,635.877,383.308Zm26.54-.737.287.189,10.95,8.212a2.738,2.738,0,0,1,.272,4.147l-.272.233-10.95,8.213a2.738,2.738,0,0,1-3.546-4.157l.261-.223,8.029-6.022-8.029-6.022a2.738,2.738,0,0,1-.736-3.545l.189-.287A2.738,2.738,0,0,1,662.417,382.571Z" transform="translate(-620 -374)" fill="#1b2032"/>
      </g>
    </g>
    <path id="Path_580" data-name="Path 580" d="M28,0A28,28,0,1,1,0,28,28,28,0,0,1,28,0Z" transform="translate(-9410 1686)" fill="#1b2032"/>
    <path id="Path_581" data-name="Path 581" d="M2.548-13.7a11.865,11.865,0,0,0,.494,3.25H.936v2.99H3.77v.052A6.366,6.366,0,0,1,1.4-2.08L2.028.1h13.26V-3.38H6.266a5.48,5.48,0,0,0,1.716-4v-.078h4.056v-2.99H7.332A10.379,10.379,0,0,1,6.76-13.26c0-1.716.832-2.522,2.184-2.522,1.508,0,2.106.962,2.158,2.262h4.082c-.13-3.3-2.158-5.9-6.344-5.9C5.148-19.422,2.548-17.316,2.548-13.7Z" transform="translate(-9390 1723)" fill="#92cb29"/>
    <g id="noun_Money_3212876" transform="translate(-9917.097 1372.974)">
      <path id="Path_175" data-name="Path 175" d="M22.733,22.058c1.737.146,3.506.244,5.26.244a50.322,50.322,0,0,0,12.142-1.445,27.088,27.088,0,0,0,3.247-1.023A17.857,17.857,0,0,0,46.9,18v5.113a2.938,2.938,0,0,1-1.38,2.045c-2.662,2.013-8.961,3.977-17.564,3.977A45.209,45.209,0,0,1,17.3,27.967a25.128,25.128,0,0,1-3.7-1.12C10.656,25.678,9,24.282,9,23.113V18a18.49,18.49,0,0,0,3.636,1.786A40.112,40.112,0,0,0,22.733,22.058Z" transform="translate(-9 10.408)" fill="#1b2032"/>
      <path id="Path_176" data-name="Path 176" d="M37.2,19.022a32.459,32.459,0,0,0,3.961-.162,46.476,46.476,0,0,0,5.308-.666,10.5,10.5,0,0,1-2.549,1.623A27.9,27.9,0,0,1,37.918,21.6a47.563,47.563,0,0,1-9.318.86,47.612,47.612,0,0,1-9.334-.86,27.451,27.451,0,0,1-5.99-1.834c-2.354-1.088-3.636-2.305-3.636-3.328,0-1.331,2.159-2.987,5.974-4.221,1.477,2.338,4.87,4.091,9.026,5.243A49.43,49.43,0,0,0,37.2,19.022Z" transform="translate(-9.608 6.805)" fill="#1b2032"/>
      <path id="Path_177" data-name="Path 177" d="M31.863,17.712a47.369,47.369,0,0,1-9.3.844c-9.026,0-15.5-2.159-17.856-4.3A2.386,2.386,0,0,1,3.65,12.533V7.42A17.856,17.856,0,0,0,7.27,9.206a25,25,0,0,0,2.76.909,49.431,49.431,0,0,0,12.564,1.623,36.042,36.042,0,0,0,3.961-.146A40.031,40.031,0,0,0,37.918,9.271a18.489,18.489,0,0,0,3.636-1.786V12.6c0,1.331-2.159,2.987-5.974,4.221a32.609,32.609,0,0,1-3.717.893Z" transform="translate(5.035 3.813)" fill="#1b2032"/>
      <path id="Path_178" data-name="Path 178" d="M37.938,9.85a27.45,27.45,0,0,1-5.99,1.834,47.531,47.531,0,0,1-9.334.877,47.482,47.482,0,0,1-9.318-.877A27.905,27.905,0,0,1,7.29,9.85C4.952,8.763,3.67,7.561,3.67,6.6,3.7,4.055,11.056.5,22.614.5s18.96,3.555,18.96,6.023C41.574,7.561,40.292,8.763,37.938,9.85Z" transform="translate(4.982 -0.5)" fill="#1b2032"/>
    </g>
    <g id="noun_Laptop_409442" transform="translate(-9415.039 1372.32)">
      <path id="Path_179" data-name="Path 179" d="M15.442,20a2.868,2.868,0,0,0-2.977,2.977V54.233H66.048V22.977A2.868,2.868,0,0,0,63.071,20ZM8,59.443v2.233c0,1.918,2.143,2.977,4.465,2.977H66.048c2.323,0,4.465-1.059,4.465-2.977V59.443H8Z" transform="translate(-8 -20)" fill="#1b2032"/>
    </g>
    <g id="noun_storage_2120948" transform="translate(-9914.243 2002.959)">
      <g id="Group_437" data-name="Group 437" transform="translate(0 0)">
        <g id="Group_436" data-name="Group 436" transform="translate(0 0)">
          <path id="Path_180" data-name="Path 180" d="M59.324,61.666c-.243-.607-5.706-16.267-5.706-16.267a2.656,2.656,0,0,0-2.549-1.7H41.054v3.581a5.479,5.479,0,0,1-5.463,5.463H29.036a5.479,5.479,0,0,1-5.463-5.463V43.7H13.619a2.656,2.656,0,0,0-2.549,1.7S5.607,60.938,5.364,61.666A8.6,8.6,0,0,0,5,63.973V69.8a6.567,6.567,0,0,0,6.555,6.555H53.194A6.567,6.567,0,0,0,59.749,69.8V63.973A11.673,11.673,0,0,0,59.324,61.666ZM56.047,69.8a2.954,2.954,0,0,1-2.913,2.913H11.495A2.914,2.914,0,0,1,8.581,69.8V63.973a2.954,2.954,0,0,1,2.913-2.913H53.133a2.954,2.954,0,0,1,2.913,2.913Z" transform="translate(-5 -18.693)" fill="#1b2032"/>
          <circle id="Ellipse_10" data-name="Ellipse 10" cx="2.974" cy="2.974" r="2.974" transform="translate(7.769 45.22)" fill="#1b2032"/>
          <path id="Path_181" data-name="Path 181" d="M44.811,78.9h-9.59a1.821,1.821,0,0,0,0,3.642h9.59a1.821,1.821,0,0,0,0-3.642Z" transform="translate(-16.162 -32.527)" fill="#1b2032"/>
          <path id="Path_182" data-name="Path 182" d="M36.168,19.435h2.124V31.028a1.826,1.826,0,0,0,1.821,1.821h6.555a1.826,1.826,0,0,0,1.821-1.821V19.435h2.124a2.923,2.923,0,0,0,2.61-1.578,2.879,2.879,0,0,0-.121-3.035L45.879,3.775a3.126,3.126,0,0,0-5.038,0L33.679,14.822a2.879,2.879,0,0,0-.121,3.035A2.993,2.993,0,0,0,36.168,19.435Z" transform="translate(-16.077 -2.5)" fill="#1b2032"/>
        </g>
      </g>
    </g>
  </g>
</svg>
