<?xml version="1.0" encoding="UTF-8" standalone="no"?>
<!-- Generator: Adobe Illustrator 19.0.0, SVG Export Plug-In . SVG Version: 6.00 Build 0)  -->

<svg
   version="1.1"
   id="Capa_1"
   x="0px"
   y="0px"
   viewBox="0 0 60 60"
   style="enable-background:new 0 0 60 60;"
   xml:space="preserve"
   sodipodi:docname="cloud-computing.svg"
   inkscape:version="1.2 (dc2aedaf03, 2022-05-15)"
   xmlns:inkscape="http://www.inkscape.org/namespaces/inkscape"
   xmlns:sodipodi="http://sodipodi.sourceforge.net/DTD/sodipodi-0.dtd"
   xmlns="http://www.w3.org/2000/svg"
   xmlns:svg="http://www.w3.org/2000/svg"><defs
   id="defs724" /><sodipodi:namedview
   id="namedview722"
   pagecolor="#505050"
   bordercolor="#eeeeee"
   borderopacity="1"
   inkscape:showpageshadow="0"
   inkscape:pageopacity="0"
   inkscape:pagecheckerboard="0"
   inkscape:deskcolor="#505050"
   showgrid="false"
   inkscape:zoom="8.75"
   inkscape:cx="20.057143"
   inkscape:cy="26.514286"
   inkscape:window-width="1366"
   inkscape:window-height="705"
   inkscape:window-x="-8"
   inkscape:window-y="-8"
   inkscape:window-maximized="1"
   inkscape:current-layer="Capa_1" />
<path
   style="fill:#0000ff;stroke:#8e919a;stroke-width:2;stroke-linecap:round;stroke-miterlimit:10;stroke-opacity:1"
   d="M50.003,21.5  c-0.115-8.699-7.193-16-15.919-16c-5.559,0-10.779,3.005-13.661,7.336C19.157,11.993,17.636,11.5,16,11.5c-4.418,0-8,3.582-8,8  c0,0.153,0.014,0.302,0.023,0.454C8.013,20.136,8,20.32,8,20.5c-3.988,1.912-7,6.457-7,11.155C1,38.17,6.33,43.5,12.845,43.5h24.507  c0.138,0,0.272-0.016,0.408-0.021c0.137,0.005,0.271,0.021,0.408,0.021h9.803C54.037,43.5,59,38.537,59,32.472  C59,27.101,55.106,22.461,50.003,21.5z"
   id="path679" />
<path
   style="fill:#7FABDA;stroke:#95979d;stroke-width:2;stroke-linecap:round;stroke-miterlimit:10;stroke-opacity:1"
   d="M50.003,21.5  c0,0-2.535-0.375-5.003,0"
   id="path681" />
<path
   style="fill:#7FABDA;stroke:#96979c;stroke-width:2;stroke-linecap:round;stroke-miterlimit:10;stroke-opacity:1"
   d="M8,19.5  c0-4.418,3.582-8,8-8s8,3.582,8,8"
   id="path683" />
<line
   style="fill:none;stroke:#424A60;stroke-width:2;stroke-linecap:round;stroke-miterlimit:10;"
   x1="31"
   y1="31.5"
   x2="31"
   y2="54.5"
   id="line685" />
<line
   style="fill:none;stroke:#424A60;stroke-width:2;stroke-linecap:round;stroke-miterlimit:10;"
   x1="31"
   y1="54.5"
   x2="23"
   y2="46.5"
   id="line687" />
<line
   style="fill:none;stroke:#424A60;stroke-width:2;stroke-linecap:round;stroke-miterlimit:10;"
   x1="39"
   y1="46.5"
   x2="31"
   y2="54.5"
   id="line689" />
<g
   id="g691">
</g>
<g
   id="g693">
</g>
<g
   id="g695">
</g>
<g
   id="g697">
</g>
<g
   id="g699">
</g>
<g
   id="g701">
</g>
<g
   id="g703">
</g>
<g
   id="g705">
</g>
<g
   id="g707">
</g>
<g
   id="g709">
</g>
<g
   id="g711">
</g>
<g
   id="g713">
</g>
<g
   id="g715">
</g>
<g
   id="g717">
</g>
<g
   id="g719">
</g>
<path
   style="fill:#0000ff;stroke:#8e919a;stroke-width:0.114286;stroke-opacity:1"
   d="m 9.0874036,19 c 0.00826,-2.094639 1.7224644,-4.671039 3.7697394,-5.665798 1.126342,-0.547283 2.014229,-0.762773 3.142857,-0.762773 2.628103,0 5.08308,1.538085 6.202087,3.885714 0.469847,0.985718 0.712199,1.862657 0.712199,2.577054 v 0.394374 H 16 9.0857143 Z"
   id="path1691" /><path
   style="fill:#0000ff;stroke:#8e919a;stroke-width:0.114286;stroke-opacity:1"
   d="m 12.551079,19.457193 c 1.937378,-0.01757 5.074521,-0.01756 6.971428,2.6e-5 1.896907,0.01759 0.311779,0.03196 -3.522507,0.03195 -3.834286,-1.4e-5 -5.3863,-0.0144 -3.448921,-0.03197 z"
   id="path1693" /><path
   style="fill:#808080;stroke:#8e919a;stroke-width:0.114286;stroke-opacity:1"
   d="m 9.2,18.938297 c 0,-1.159639 0.806506,-2.891604 1.888606,-4.055769 2.581623,-2.777406 6.764923,-2.913362 9.524675,-0.309549 0.416982,0.39342 0.95232,1.042587 1.189644,1.442593 C 22.288074,16.833291 22.8,18.324598 22.8,18.920185 v 0.394101 H 16 9.2 Z"
   id="path1695" /><path
   style="fill:#0000ff;stroke:#8e919a;stroke-width:0.114286;stroke-opacity:1"
   d="M 30.628571,55.431711 C 30.200399,55.250648 22.149345,47.049445 22.069777,46.713299 21.916794,46.067001 22.496364,45.488416 23.2,45.584998 c 0.125714,0.01726 1.707143,1.505929 3.514286,3.308163 L 30,52.169951 V 41.873458 c 0,-7.240996 0.03759,-10.404327 0.126676,-10.659876 0.248956,-0.714154 1.123549,-0.863297 1.589417,-0.271041 0.222413,0.282752 0.226764,0.489148 0.226764,10.755955 v 10.46767 l 3.290262,-3.283083 c 1.92048,-1.916291 3.383526,-3.288562 3.514286,-3.296243 0.721417,-0.04238 1.195452,0.337206 1.195452,0.957266 0,0.320289 -0.456292,0.819936 -4.142857,4.536485 -2.278571,2.297104 -4.271429,4.238518 -4.428571,4.314255 -0.33535,0.161624 -0.43602,0.16662 -0.742858,0.03686 z"
   id="path1766" /><path
   style="fill:#0000ff;stroke:#8e919a;stroke-width:0.114286;stroke-opacity:1"
   d="m 9.3446849,18.595625 c 0.119418,-1.157049 0.9369841,-2.727039 1.9777421,-3.7979 0.694193,-0.714271 1.713639,-1.34404 2.697279,-1.666257 1.152372,-0.377491 2.894343,-0.37691 3.980294,0.0013 1.416647,0.493417 2.697047,1.466435 3.537888,2.688555 0.461029,0.670082 1.028897,2.105662 1.112646,2.812781 L 22.717552,19.2 H 15.99993 9.2823079 Z"
   id="path1768" /><path
   style="fill:#808080;stroke:#8e919a;stroke-width:0.114286;stroke-opacity:1"
   d="m 29.496763,54.2 c -1.182278,-1.118153 -5.302144,-5.31641 -6.789869,-6.919064 -0.655625,-0.706273 -0.697755,-0.959739 -0.227159,-1.36665 0.515814,-0.446011 0.632567,-0.359977 3.954869,2.914285 1.737988,1.712858 3.228399,3.204286 3.312025,3.314286 0.08363,0.11 0.197843,0.2 0.253818,0.2 0.05851,0 0.11648,-4.459056 0.136376,-10.490835 0.03238,-9.816793 0.04763,-10.510699 0.23724,-10.8 0.25785,-0.393408 0.854267,-0.428116 1.179653,-0.06865 0.209905,0.231891 0.219762,0.62021 0.274855,10.828571 L 31.885714,52.4 35.277566,49.057143 c 2.704221,-2.665159 3.45248,-3.342857 3.690909,-3.342857 0.354523,0 0.860096,0.465004 0.860096,0.79108 0,0.490715 -8.366603,8.923205 -8.853485,8.923205 -0.09861,0 -0.763857,-0.552857 -1.478323,-1.228571 z"
   id="path1770" /></svg>
